<svg width="134" height="43" viewBox="0 0 134 43" fill="none" xmlns="http://www.w3.org/2000/svg">
<path d="M2.94727 36.9609L4.23633 32.6602H5.75391L3.23438 39.9609C2.84766 41.0273 2.19141 41.5605 1.26562 41.5605C1.05859 41.5605 0.830078 41.5254 0.580078 41.4551V40.3535L0.849609 40.3711C1.20898 40.3711 1.47852 40.3047 1.6582 40.1719C1.8418 40.043 1.98633 39.8242 2.0918 39.5156L2.29688 38.9707L0.0703125 32.6602H1.60547L2.94727 36.9609ZM10.3418 37.248L12.2168 32.6602H13.998V39H12.5742V34.8047L10.8281 39H9.86133L8.10938 34.7812V39H6.68555V32.6602H8.47852L10.3418 37.248ZM20.9707 39H19.5469V36.4395H17.0801V39H15.6562V32.6602H17.0801V35.3027H19.5469V32.6602H20.9707V39ZM24.0234 34.6758H25.418C25.9375 34.6758 26.3906 34.7656 26.7773 34.9453C27.1641 35.125 27.457 35.377 27.6562 35.7012C27.8594 36.0254 27.9609 36.4023 27.9609 36.832C27.9609 37.4844 27.7305 38.0078 27.2695 38.4023C26.8086 38.7969 26.1953 38.9961 25.4297 39H22.5996V32.6602H24.0234V34.6758ZM30.4395 39H29.0156V32.6602H30.4395V39ZM24.0234 35.8184V37.8633H25.4121C25.7598 37.8633 26.0332 37.7773 26.2324 37.6055C26.4355 37.4297 26.5371 37.1816 26.5371 36.8613C26.5371 36.541 26.4375 36.2891 26.2383 36.1055C26.043 35.918 25.7773 35.8223 25.4414 35.8184H24.0234ZM34.9395 39.1172C34.0371 39.1172 33.3047 38.834 32.7422 38.2676C32.1836 37.6973 31.9043 36.9395 31.9043 35.9941V35.8184C31.9043 35.1855 32.0254 34.6211 32.2676 34.125C32.5137 33.625 32.8574 33.2363 33.2988 32.959C33.7402 32.6816 34.2324 32.543 34.7754 32.543C35.6387 32.543 36.3047 32.8184 36.7734 33.3691C37.2461 33.9199 37.4824 34.6992 37.4824 35.707V36.2812H33.3398C33.3828 36.8047 33.5566 37.2188 33.8613 37.5234C34.1699 37.8281 34.5566 37.9805 35.0215 37.9805C35.6738 37.9805 36.2051 37.7168 36.6152 37.1895L37.3828 37.9219C37.1289 38.3008 36.7891 38.5957 36.3633 38.8066C35.9414 39.0137 35.4668 39.1172 34.9395 39.1172ZM34.7695 33.6855C34.3789 33.6855 34.0625 33.8223 33.8203 34.0957C33.582 34.3691 33.4297 34.75 33.3633 35.2383H36.0762V35.1328C36.0449 34.6562 35.918 34.2969 35.6953 34.0547C35.4727 33.8086 35.1641 33.6855 34.7695 33.6855ZM46.5703 33.791H44.5137V39H43.0898V33.791H41.0566V32.6602H46.5703V33.791ZM49.9395 39.1172C49.0371 39.1172 48.3047 38.834 47.7422 38.2676C47.1836 37.6973 46.9043 36.9395 46.9043 35.9941V35.8184C46.9043 35.1855 47.0254 34.6211 47.2676 34.125C47.5137 33.625 47.8574 33.2363 48.2988 32.959C48.7402 32.6816 49.2324 32.543 49.7754 32.543C50.6387 32.543 51.3047 32.8184 51.7734 33.3691C52.2461 33.9199 52.4824 34.6992 52.4824 35.707V36.2812H48.3398C48.3828 36.8047 48.5566 37.2188 48.8613 37.5234C49.1699 37.8281 49.5566 37.9805 50.0215 37.9805C50.6738 37.9805 51.2051 37.7168 51.6152 37.1895L52.3828 37.9219C52.1289 38.3008 51.7891 38.5957 51.3633 38.8066C50.9414 39.0137 50.4668 39.1172 49.9395 39.1172ZM49.7695 33.6855C49.3789 33.6855 49.0625 33.8223 48.8203 34.0957C48.582 34.3691 48.4297 34.75 48.3633 35.2383H51.0762V35.1328C51.0449 34.6562 50.918 34.2969 50.6953 34.0547C50.4727 33.8086 50.1641 33.6855 49.7695 33.6855ZM55.8691 34.7461L57.0762 32.6602H58.6582L56.7188 35.7832L58.7227 39H57.1523L55.8867 36.832L54.627 39H53.0449L55.0488 35.7832L53.1152 32.6602H54.6855L55.8691 34.7461ZM64.998 39H63.5742V36.4395H61.1074V39H59.6836V32.6602H61.1074V35.3027H63.5742V32.6602H64.998V39ZM66.252 35.7715C66.252 35.1504 66.375 34.5918 66.6211 34.0957C66.8672 33.5957 67.2129 33.2129 67.6582 32.9473C68.1035 32.6777 68.6152 32.543 69.1934 32.543C70.0488 32.543 70.7422 32.8184 71.2734 33.3691C71.8086 33.9199 72.0977 34.6504 72.1406 35.5605L72.1465 35.8945C72.1465 36.5195 72.0254 37.0781 71.7832 37.5703C71.5449 38.0625 71.2012 38.4434 70.752 38.7129C70.3066 38.9824 69.791 39.1172 69.2051 39.1172C68.3105 39.1172 67.5938 38.8203 67.0547 38.2266C66.5195 37.6289 66.252 36.834 66.252 35.8418V35.7715ZM67.6758 35.8945C67.6758 36.5469 67.8105 37.0586 68.0801 37.4297C68.3496 37.7969 68.7246 37.9805 69.2051 37.9805C69.6855 37.9805 70.0586 37.793 70.3242 37.418C70.5938 37.043 70.7285 36.4941 70.7285 35.7715C70.7285 35.1309 70.5898 34.623 70.3125 34.248C70.0391 33.873 69.666 33.6855 69.1934 33.6855C68.7285 33.6855 68.3594 33.8711 68.0859 34.2422C67.8125 34.6094 67.6758 35.1602 67.6758 35.8945ZM78.6445 32.6602V39H77.2207V33.8086H75.4277L75.3105 36.0176C75.2363 37.0801 75.0312 37.8438 74.6953 38.3086C74.3633 38.7695 73.8535 39 73.166 39H72.7266L72.7207 37.8164L73.0137 37.7871C73.3262 37.7441 73.5527 37.5547 73.6934 37.2188C73.8379 36.8789 73.9297 36.2617 73.9688 35.3672L74.0859 32.6602H78.6445ZM79.8926 35.7715C79.8926 35.1504 80.0156 34.5918 80.2617 34.0957C80.5078 33.5957 80.8535 33.2129 81.2988 32.9473C81.7441 32.6777 82.2559 32.543 82.834 32.543C83.6895 32.543 84.3828 32.8184 84.9141 33.3691C85.4492 33.9199 85.7383 34.6504 85.7812 35.5605L85.7871 35.8945C85.7871 36.5195 85.666 37.0781 85.4238 37.5703C85.1855 38.0625 84.8418 38.4434 84.3926 38.7129C83.9473 38.9824 83.4316 39.1172 82.8457 39.1172C81.9512 39.1172 81.2344 38.8203 80.6953 38.2266C80.1602 37.6289 79.8926 36.834 79.8926 35.8418V35.7715ZM81.3164 35.8945C81.3164 36.5469 81.4512 37.0586 81.7207 37.4297C81.9902 37.7969 82.3652 37.9805 82.8457 37.9805C83.3262 37.9805 83.6992 37.793 83.9648 37.418C84.2344 37.043 84.3691 36.4941 84.3691 35.7715C84.3691 35.1309 84.2305 34.623 83.9531 34.248C83.6797 33.873 83.3066 33.6855 82.834 33.6855C82.3691 33.6855 82 33.8711 81.7266 34.2422C81.4531 34.6094 81.3164 35.1602 81.3164 35.8945ZM91.2129 33.8086H88.459V39H87.041V32.6602H91.2129V33.8086ZM95.9766 32.6602H97.3945V39H95.9766V34.7695L93.4922 39H92.0742V32.6602H93.4922V36.8906L95.9766 32.6602ZM102.867 32.6602H104.285V39H102.867V34.7695L100.383 39H98.9648V32.6602H100.383V36.8906L102.867 32.6602Z" fill="#788891"/>
<path d="M8.93555 16.3369C8.93555 15.6126 8.74837 15.0674 8.37402 14.7012C8.00781 14.3268 7.33643 13.9403 6.35986 13.5415C4.57764 12.866 3.2959 12.0767 2.51465 11.1733C1.7334 10.2619 1.34277 9.18766 1.34277 7.95068C1.34277 6.45329 1.87174 5.25293 2.92969 4.34961C3.99577 3.43815 5.34668 2.98242 6.98242 2.98242C8.07292 2.98242 9.04541 3.21436 9.8999 3.67822C10.7544 4.13395 11.4095 4.78092 11.8652 5.61914C12.3291 6.45736 12.561 7.40951 12.561 8.47559H8.98438C8.98438 7.64551 8.80534 7.01481 8.44727 6.5835C8.09733 6.14404 7.5887 5.92432 6.92139 5.92432C6.29476 5.92432 5.80648 6.11149 5.45654 6.48584C5.10661 6.85205 4.93164 7.34847 4.93164 7.9751C4.93164 8.46338 5.12695 8.9069 5.51758 9.30566C5.9082 9.69629 6.59993 10.1032 7.59277 10.5264C9.32617 11.153 10.5835 11.922 11.3647 12.8335C12.1541 13.745 12.5488 14.9046 12.5488 16.3125C12.5488 17.8587 12.0565 19.0672 11.0718 19.938C10.0871 20.8088 8.74837 21.2441 7.05566 21.2441C5.9082 21.2441 4.86247 21.0081 3.91846 20.5361C2.97445 20.0641 2.23389 19.3887 1.69678 18.5098C1.16781 17.6309 0.90332 16.5933 0.90332 15.397H4.50439C4.50439 16.4224 4.70378 17.167 5.10254 17.6309C5.5013 18.0947 6.15234 18.3267 7.05566 18.3267C8.30892 18.3267 8.93555 17.6634 8.93555 16.3369ZM18.0054 7.79199L18.103 9.0127C18.8761 8.03613 19.8975 7.54785 21.167 7.54785C22.4854 7.54785 23.4172 8.14193 23.9624 9.33008C24.7192 8.14193 25.7975 7.54785 27.1973 7.54785C29.5085 7.54785 30.6925 9.14697 30.7495 12.3452V21H27.2949V12.5649C27.2949 11.8 27.1891 11.2547 26.9775 10.9292C26.766 10.6037 26.4079 10.4409 25.9033 10.4409C25.2604 10.4409 24.7803 10.8356 24.4629 11.625L24.4873 12.04V21H21.0327V12.5894C21.0327 11.8325 20.931 11.2873 20.7275 10.9536C20.5241 10.6118 20.1619 10.4409 19.6411 10.4409C19.047 10.4409 18.575 10.7624 18.2251 11.4053V21H14.7705V7.79199H18.0054ZM39.5874 21C39.4897 20.7965 39.3921 20.4548 39.2944 19.9746C38.6759 20.821 37.8377 21.2441 36.7798 21.2441C35.673 21.2441 34.7534 20.8779 34.021 20.1455C33.2967 19.4131 32.9346 18.465 32.9346 17.3013C32.9346 15.9178 33.374 14.8477 34.2529 14.0908C35.14 13.334 36.4136 12.9474 38.0737 12.9312H39.1235V11.8691C39.1235 11.2751 39.0218 10.856 38.8184 10.6118C38.6149 10.3677 38.3179 10.2456 37.9272 10.2456C37.0646 10.2456 36.6333 10.7502 36.6333 11.7593H33.1787C33.1787 10.5386 33.6344 9.53353 34.5459 8.74414C35.4655 7.94661 36.6252 7.54785 38.0249 7.54785C39.4735 7.54785 40.5924 7.92627 41.3818 8.68311C42.1794 9.4318 42.5781 10.506 42.5781 11.9058V18.1191C42.5944 19.2585 42.7572 20.1496 43.0664 20.7925V21H39.5874ZM37.5488 18.5342C37.9313 18.5342 38.2568 18.4569 38.5254 18.3022C38.7939 18.1476 38.9933 17.9645 39.1235 17.7529V15.0063H38.2935C37.7075 15.0063 37.2437 15.1935 36.9019 15.5679C36.5682 15.9422 36.4014 16.4427 36.4014 17.0693C36.4014 18.0459 36.7839 18.5342 37.5488 18.5342ZM51.5991 11.1245L50.4517 11.0269C49.5076 11.0269 48.8688 11.4419 48.5352 12.272V21H45.0684V7.79199H48.3276L48.4253 9.22021C48.9705 8.10531 49.7233 7.54785 50.6836 7.54785C51.0742 7.54785 51.3916 7.60075 51.6357 7.70654L51.5991 11.1245ZM58.0078 4.54492V7.79199H59.7778V10.3921H58.0078V16.9473C58.0078 17.4681 58.077 17.8262 58.2153 18.0215C58.3618 18.2168 58.6385 18.3145 59.0454 18.3145C59.3791 18.3145 59.6517 18.286 59.8633 18.229L59.8389 20.9146C59.2529 21.1343 58.6182 21.2441 57.9346 21.2441C55.7048 21.2441 54.5776 19.9665 54.5532 17.4111V10.3921H53.0273V7.79199H54.5532V4.54492H58.0078ZM67.6147 21V3.22656H72.3145C74.3896 3.22656 76.0417 3.88574 77.2705 5.2041C78.5075 6.52246 79.1382 8.3291 79.1626 10.624V13.5049C79.1626 15.8405 78.5441 17.6756 77.3071 19.0103C76.0783 20.3368 74.3815 21 72.2168 21H67.6147ZM71.2036 6.21729V18.0215H72.2778C73.4741 18.0215 74.3164 17.7082 74.8047 17.0815C75.293 16.4468 75.5493 15.3563 75.5737 13.8101V10.7217C75.5737 9.06152 75.3418 7.90592 74.8779 7.25488C74.4141 6.5957 73.6247 6.24984 72.5098 6.21729H71.2036ZM86.9141 21.2441C85.14 21.2441 83.7565 20.7152 82.7637 19.6572C81.7708 18.5993 81.2744 17.0856 81.2744 15.1162V14.0664C81.2744 11.9831 81.7301 10.3758 82.6416 9.24463C83.5531 8.11344 84.8592 7.54785 86.5601 7.54785C88.2202 7.54785 89.4694 8.08089 90.3076 9.14697C91.1458 10.2049 91.5731 11.7756 91.5894 13.8589V15.5557H84.7168C84.7656 16.5322 84.9813 17.2484 85.3638 17.7041C85.7463 18.1517 86.3363 18.3755 87.1338 18.3755C88.2894 18.3755 89.2537 17.9808 90.0269 17.1914L91.3818 19.2788C90.9587 19.8647 90.3442 20.3408 89.5386 20.707C88.7329 21.0651 87.8581 21.2441 86.9141 21.2441ZM84.7412 13.1387H88.1958V12.8213C88.1795 12.0319 88.0493 11.4338 87.8052 11.0269C87.561 10.62 87.1379 10.4165 86.5356 10.4165C85.9334 10.4165 85.494 10.6322 85.2173 11.0635C84.9487 11.4948 84.79 12.1865 84.7412 13.1387ZM97.7051 16.1172L99.3774 7.79199H102.979L99.353 21H96.0571L92.4194 7.79199H96.0327L97.7051 16.1172ZM108.228 21H104.761V7.79199H108.228V21ZM104.602 4.37402C104.602 3.83691 104.773 3.39746 105.115 3.05566C105.457 2.71387 105.912 2.54297 106.482 2.54297C107.052 2.54297 107.507 2.71387 107.849 3.05566C108.191 3.39746 108.362 3.83691 108.362 4.37402C108.362 4.90299 108.191 5.34245 107.849 5.69238C107.515 6.04232 107.06 6.21729 106.482 6.21729C105.904 6.21729 105.444 6.04232 105.103 5.69238C104.769 5.34245 104.602 4.90299 104.602 4.37402ZM115.674 18.3755C116.675 18.3755 117.183 17.7244 117.2 16.4224H120.447C120.431 17.8628 119.987 19.0265 119.116 19.9136C118.245 20.8006 117.122 21.2441 115.747 21.2441C114.046 21.2441 112.748 20.7152 111.853 19.6572C110.958 18.5993 110.502 17.0409 110.486 14.9819V13.9321C110.486 11.8569 110.925 10.2741 111.804 9.18359C112.691 8.0931 113.997 7.54785 115.723 7.54785C117.179 7.54785 118.327 7.99951 119.165 8.90283C120.003 9.79801 120.431 11.0716 120.447 12.7236H117.2C117.192 11.9831 117.069 11.4134 116.833 11.0146C116.597 10.6159 116.207 10.4165 115.662 10.4165C115.059 10.4165 114.628 10.6322 114.368 11.0635C114.107 11.4867 113.969 12.3127 113.953 13.5415V14.8843C113.953 15.9585 114.006 16.7113 114.111 17.1426C114.217 17.5658 114.392 17.8791 114.636 18.0825C114.88 18.2778 115.226 18.3755 115.674 18.3755ZM127.734 21.2441C125.96 21.2441 124.577 20.7152 123.584 19.6572C122.591 18.5993 122.095 17.0856 122.095 15.1162V14.0664C122.095 11.9831 122.55 10.3758 123.462 9.24463C124.373 8.11344 125.68 7.54785 127.38 7.54785C129.041 7.54785 130.29 8.08089 131.128 9.14697C131.966 10.2049 132.393 11.7756 132.41 13.8589V15.5557H125.537C125.586 16.5322 125.802 17.2484 126.184 17.7041C126.567 18.1517 127.157 18.3755 127.954 18.3755C129.11 18.3755 130.074 17.9808 130.847 17.1914L132.202 19.2788C131.779 19.8647 131.165 20.3408 130.359 20.707C129.553 21.0651 128.678 21.2441 127.734 21.2441ZM125.562 13.1387H129.016V12.8213C129 12.0319 128.87 11.4338 128.625 11.0269C128.381 10.62 127.958 10.4165 127.356 10.4165C126.754 10.4165 126.314 10.6322 126.038 11.0635C125.769 11.4948 125.61 12.1865 125.562 13.1387Z" fill="white"/>
</svg>
