<svg xmlns="http://www.w3.org/2000/svg" xmlns:xlink="http://www.w3.org/1999/xlink"><symbol id="icon-detective" viewBox="0 0 36 31">
<path d="M18 9.75818C17.6119 9.75818 17.2969 10.0751 17.2969 10.4662C17.2969 10.8571 17.6119 11.1743 18 11.1743C18.3881 11.1743 18.7031 10.8571 18.7031 10.4662C18.7031 10.0751 18.3881 9.75818 18 9.75818Z" fill="var(--hover, #00B2FF)"/>
<path d="M33.8906 14.0066H31.1548C29.7125 9.85946 27.6199 2.58774 23.8291 0.529671C21.9331 -0.498398 20.141 0.219618 19.4669 1.67833C19.1802 2.29844 18.6075 2.62453 18 2.62453C17.3842 2.62453 16.8162 2.29124 16.5331 1.67888C15.8829 0.269957 14.1336 -0.513887 12.3041 0.380314C8.45261 2.26386 6.29874 9.8282 4.84525 14.0066H2.10938C0.944 14.0066 0 14.9569 0 16.1308C0 17.3018 0.946198 18.2549 2.10938 18.2549H33.8906C35.056 18.2549 36 17.3043 36 16.1308C36 14.9594 35.0538 14.0066 33.8906 14.0066ZM7.31525 11.1743H15.1875C15.5759 11.1743 15.8906 10.8571 15.8906 10.4663C15.8906 10.0752 15.5759 9.75823 15.1875 9.75823H7.80688C9.92642 3.86225 11.9064 2.14908 12.9183 1.65427C14.0221 1.11493 14.9307 1.56631 15.2581 2.27603C15.7739 3.39178 16.8409 4.04065 18 4.04065C19.1618 4.04065 20.2275 3.38929 20.7419 2.27603C21.0789 1.54612 21.9922 1.14203 23.1619 1.77624C24.1784 2.32831 26.1524 4.09845 28.1928 9.75823H20.8125C20.4241 9.75823 20.1094 10.0752 20.1094 10.4663C20.1094 10.8574 20.4241 11.1743 20.8125 11.1743H28.685C29.0404 12.2066 29.4096 13.2717 29.665 14.0066H6.33527C6.58987 13.2736 6.95819 12.211 7.31525 11.1743ZM33.8906 16.8388H2.10938C1.72156 16.8388 1.40625 16.521 1.40625 16.1308C1.40625 15.7397 1.72101 15.4227 2.10938 15.4227H33.8906C34.2784 15.4227 34.5938 15.7402 34.5938 16.1308C34.5938 16.5216 34.2787 16.8388 33.8906 16.8388Z" fill="var(--hover, #00B2FF)"/>
<path d="M16.5938 21.0872H5.34375C4.95538 21.0872 4.64062 21.4042 4.64062 21.7952V24.6275C4.64062 28.1412 7.47949 31 10.9688 31C13.6126 31 15.9527 29.3624 16.8835 26.8952C17.5905 26.5705 18.4095 26.5705 19.1165 26.8952C20.0473 29.3624 22.3874 30.9997 25.0312 30.9997C28.5205 30.9997 31.3594 28.1412 31.3594 24.6272V21.795C31.3594 21.4039 31.0446 21.0869 30.6562 21.0869H19.4062C19.0179 21.0869 18.7031 21.4039 18.7031 21.795V22.503H17.2969V21.795C17.2969 21.4042 16.9821 21.0872 16.5938 21.0872ZM10.9688 29.5839C8.25485 29.5839 6.04688 27.3604 6.04688 24.6275V22.5033H15.8906V24.6275C15.8906 27.3676 13.6945 29.5839 10.9688 29.5839ZM20.1094 22.5033H29.9531V24.6275C29.9531 27.3604 27.7451 29.5839 25.0312 29.5839C22.2987 29.5839 20.1094 27.361 20.1094 24.6275V22.5033ZM18.7031 23.9194V24.6275C18.7031 24.8537 18.716 25.0792 18.7394 25.3029C18.2508 25.213 17.7492 25.213 17.2606 25.3029C17.284 25.0792 17.2969 24.8537 17.2969 24.6275V23.9194H18.7031Z" fill="var(--hover, #00B2FF)"/>
<path d="M10.9688 26.7515C9.80557 26.7515 8.85938 25.7984 8.85938 24.6274C8.85938 24.2363 8.54462 23.9193 8.15625 23.9193C7.76788 23.9193 7.45312 24.2363 7.45312 24.6274C7.45312 26.5792 9.03021 28.1677 10.9688 28.1677C11.3571 28.1677 11.6719 27.8504 11.6719 27.4596C11.6719 27.0685 11.3571 26.7515 10.9688 26.7515Z" fill="var(--hover, #00B2FF)"/>
<path d="M25.0312 28.1677C26.9698 28.1677 28.5469 26.5792 28.5469 24.6274C28.5469 24.2363 28.2321 23.9193 27.8438 23.9193C27.4554 23.9193 27.1406 24.2363 27.1406 24.6274C27.1406 25.7984 26.1944 26.7515 25.0312 26.7515C24.6429 26.7515 24.3281 27.0685 24.3281 27.4596C24.3281 27.8504 24.6429 28.1677 25.0312 28.1677Z" fill="var(--hover, #00B2FF)"/>
</symbol><symbol id="icon-email" viewBox="0 0 19 14">
<path d="M16.6805 0H2.3234C1.0418 0 0 1.0087 0 2.24959V11.7504C0 12.9913 1.0418 14 2.3234 14H16.6766C17.9582 14 19 12.9913 19 11.7504V2.2534C19.0039 1.01251 17.9621 0 16.6805 0ZM17.9425 11.7504C17.9425 12.4241 17.3764 12.9723 16.6805 12.9723H2.3234C1.62756 12.9723 1.06145 12.4241 1.06145 11.7504V2.2534C1.06145 1.57966 1.62756 1.03154 2.3234 1.03154H16.6766C17.3724 1.03154 17.9385 1.57966 17.9385 2.2534V11.7504H17.9425Z" fill="var(--hover, #00B2FF)"/>
<path d="M11.9826 6.88195L16.6294 2.84715C16.8456 2.65683 16.8653 2.33328 16.6687 2.12012C16.4721 1.91077 16.138 1.89174 15.9178 2.08206L9.5098 7.65085L8.25965 6.56982C8.25571 6.56602 8.25178 6.56221 8.25178 6.5584C8.22426 6.53176 8.19674 6.50892 8.16529 6.48608L3.07819 2.07825C2.85803 1.88793 2.52387 1.90696 2.32731 2.12012C2.13074 2.33328 2.1504 2.65683 2.37055 2.84715L7.07239 6.91621L2.39021 11.1604C2.17792 11.3545 2.16613 11.678 2.36662 11.8874C2.47277 11.994 2.61429 12.0511 2.75582 12.0511C2.88555 12.0511 3.01529 12.0054 3.1175 11.914L7.87045 7.60898L9.15991 8.72426C9.26213 8.8118 9.38793 8.85367 9.51373 8.85367C9.63953 8.85367 9.76927 8.808 9.86755 8.72045L11.1924 7.57091L15.9178 11.9178C16.02 12.013 16.1537 12.0587 16.2834 12.0587C16.425 12.0587 16.5626 12.0054 16.6687 11.8988C16.8692 11.6933 16.8613 11.3659 16.649 11.1718L11.9826 6.88195Z" fill="var(--hover, #00B2FF)"/>
</symbol><symbol id="icon-facebook" viewBox="0 0 27 27">
<path fill-rule="evenodd" clip-rule="evenodd" d="M27 13.5C27 6.04462 20.9562 0 13.5 0C6.04379 0 0 6.04462 0 13.5C0 20.9562 6.04369 27 13.5 27C20.9562 27 27 20.9563 27 13.5ZM16.8836 9.29395H15.1437C14.6754 9.29395 14.3464 9.69053 14.3464 10.185V10.9604H16.8312L16.4288 13.4772H14.3455V20.2238H11.8025V13.4772H10.115V10.9604H11.8025V9.677H11.8075C11.8523 8.21392 12.3602 6.82092 14.8383 6.73315V6.72388H16.8836V9.29395Z" fill="var(--hover, #CDCDCD)"/>
</symbol><symbol id="icon-hired" viewBox="0 0 35 35">
<path d="M31.2638 27.8931C31.639 27.3746 31.8609 26.7384 31.8609 26.0511V21.9434C31.8609 21.5658 31.5548 21.2598 31.1773 21.2598H28.1222C26.7099 21.2598 25.5609 22.4087 25.5609 23.8211V26.0511C25.5609 26.738 25.7826 27.3738 26.1573 27.8921C25.69 27.9679 25.2404 28.1176 24.8211 28.3367C23.8713 26.9195 22.3152 25.9421 20.5271 25.7772C20.5201 25.7752 20.513 25.7738 20.506 25.7721C21.1457 25.0577 21.5357 24.1151 21.5357 23.0829V17.5C21.5357 17.1225 21.2296 16.8164 20.8521 16.8164H16.6999C14.9157 16.8164 13.4643 18.2679 13.4643 20.052V23.0828C13.4643 24.1151 13.8543 25.0576 14.494 25.772C14.487 25.7737 14.4799 25.7752 14.4729 25.7772C12.6846 25.942 11.1284 26.9196 10.1787 28.337C9.75926 28.1179 9.30959 27.9681 8.84249 27.8923C9.21724 27.374 9.43906 26.7381 9.43906 26.0511V21.9434C9.43906 21.5658 9.13295 21.2598 8.75547 21.2598H5.70035C4.28805 21.2598 3.13906 22.4087 3.13906 23.8211V26.0511C3.13906 26.7385 3.36103 27.3746 3.73618 27.8931C1.62025 28.2389 0 30.0791 0 32.2913V34.3164C0 34.694 0.306113 35 0.683594 35H34.3164C34.6939 35 35 34.694 35 34.3164V32.2913C35 30.0791 33.3797 28.2389 31.2638 27.8931ZM4.50625 23.8211C4.50625 23.1626 5.04191 22.627 5.70035 22.627H8.07188V23.4595C8.07188 23.8677 7.73979 24.1998 7.33161 24.1998H4.50625V23.8211ZM4.50625 25.567H7.33161C7.59206 25.567 7.84144 25.5192 8.07188 25.4324V26.0511C8.07188 27.0341 7.27214 27.8339 6.28906 27.8339C5.30599 27.8339 4.50625 27.0341 4.50625 26.0511V25.567ZM6.72978 29.2011L6.28906 29.6418L5.84835 29.2011H6.72978ZM9.19789 31.564V33.6328H1.36719V32.2913C1.36719 30.758 2.48985 29.4826 3.95616 29.2424L5.80569 31.0919C5.93394 31.2201 6.10777 31.2921 6.28906 31.2921C6.47035 31.2921 6.64419 31.2201 6.77243 31.0919L8.62251 29.2417C8.94927 29.2949 9.26352 29.4003 9.55637 29.5544C9.32477 30.1809 9.19789 30.8579 9.19789 31.564ZM17.5001 25.7515C16.0286 25.7515 14.8315 24.5543 14.8315 23.0829V22.1794H18.917C19.37 22.1794 19.7965 22.0637 20.1686 21.8604V23.0829C20.1686 24.5543 18.9715 25.7515 17.5001 25.7515ZM18.6916 27.1186L17.5 28.3102L16.3084 27.1186H18.6916ZM14.8314 20.052H14.8315C14.8315 19.0217 15.6696 18.1836 16.6999 18.1836H20.1685V19.5606C20.1685 20.2508 19.607 20.8123 18.9169 20.8123H14.8314V20.052ZM24.4349 33.6328H23.1055H11.8945H10.5651V32.2656H15.0163C15.3938 32.2656 15.6999 31.9596 15.6999 31.582C15.6999 31.2045 15.3938 30.8984 15.0163 30.8984H10.6151C10.9081 28.9556 12.4633 27.422 14.4158 27.1595L17.0166 29.7603C17.1501 29.8938 17.3251 29.9605 17.5 29.9605C17.6749 29.9605 17.8499 29.8938 17.9834 29.7603L20.5842 27.1595C22.755 27.4513 24.4349 29.3146 24.4349 31.564V33.6328ZM26.9281 23.8211C26.9281 23.1626 27.4638 22.627 28.1222 22.627H30.4937V23.4595C30.4937 23.8677 30.1617 24.1998 29.7535 24.1998H26.9281V23.8211ZM26.9281 25.567H29.7535C30.0139 25.567 30.2633 25.5192 30.4937 25.4324V26.0511C30.4937 27.0341 29.694 27.8339 28.7109 27.8339C27.7279 27.8339 26.9281 27.0341 26.9281 26.0511V25.567ZM29.1516 29.2011L28.7109 29.6418L28.2702 29.2011H29.1516ZM25.802 33.6328V31.564C25.802 30.8578 25.6752 30.1809 25.4435 29.5542C25.7362 29.4 26.0504 29.2947 26.3772 29.2416L28.2275 31.0919C28.3557 31.2201 28.5296 31.2921 28.7109 31.2921C28.8922 31.2921 29.066 31.2201 29.1942 31.0919L31.0438 29.2424C32.5101 29.4826 33.6327 30.758 33.6327 32.2913V33.6328H25.802Z" fill="var(--hover, #00B2FF)"/>
<path d="M20.869 4.46644C20.602 4.1995 20.1693 4.1995 19.9022 4.46644L16.5478 7.82091L15.0977 6.3708C14.8307 6.10379 14.398 6.10379 14.131 6.37073C13.8641 6.63767 13.8641 7.07052 14.131 7.33754L16.0645 9.27101C16.1927 9.39919 16.3665 9.47124 16.5478 9.47124C16.7291 9.47124 16.903 9.39919 17.0312 9.27101L20.869 5.43318C21.136 5.16624 21.136 4.73339 20.869 4.46644Z" fill="var(--hover, #00B2FF)"/>
<path d="M20.295 0.592753C19.9503 0.439013 19.5461 0.593847 19.3923 0.938651C19.2385 1.28346 19.3934 1.68766 19.7382 1.84141C21.7205 2.7255 23.0015 4.69883 23.0015 6.86869C23.0015 9.90221 20.5335 12.3702 17.5 12.3702C14.4664 12.3702 11.9985 9.90221 11.9985 6.86869C11.9985 4.71004 13.2702 2.74081 15.2382 1.85193C15.5823 1.69655 15.7353 1.29159 15.5798 0.947538C15.4244 0.603417 15.0193 0.450497 14.6755 0.605878C12.2188 1.71549 10.6313 4.17376 10.6313 6.86862C10.6313 10.6561 13.7126 13.7374 17.5 13.7374C21.2873 13.7374 24.3686 10.6561 24.3686 6.86869C24.3686 4.15981 22.7696 1.69635 20.295 0.592753Z" fill="var(--hover, #00B2FF)"/>
<path d="M17.5245 0H17.5C17.1225 0 16.8164 0.306045 16.8164 0.683594C16.8164 1.06114 17.1225 1.36719 17.5 1.36719H17.518C17.5191 1.36719 17.5202 1.36719 17.5213 1.36719C17.8974 1.36719 18.2031 1.06326 18.2049 0.686807C18.2066 0.309258 17.902 0.00177734 17.5245 0Z" fill="var(--hover, #00B2FF)"/>
<path d="M17.9832 31.0987C17.8562 30.9716 17.6798 30.8984 17.5 30.8984C17.3202 30.8984 17.1438 30.9716 17.0167 31.0987C16.8896 31.2259 16.8164 31.4022 16.8164 31.582C16.8164 31.7618 16.8895 31.9382 17.0167 32.0653C17.1439 32.1925 17.3202 32.2656 17.5 32.2656C17.6798 32.2656 17.8562 32.1925 17.9832 32.0653C18.1104 31.9382 18.1836 31.7618 18.1836 31.582C18.1836 31.4022 18.1104 31.2259 17.9832 31.0987Z" fill="var(--hover, #00B2FF)"/>
</symbol><symbol id="icon-logo-footer" viewBox="0 0 216 56">
<path d="M70.9473 43.9609L72.2363 39.6602H73.7539L71.2344 46.9609C70.8477 48.0273 70.1914 48.5605 69.2656 48.5605C69.0586 48.5605 68.8301 48.5254 68.5801 48.4551V47.3535L68.8496 47.3711C69.209 47.3711 69.4785 47.3047 69.6582 47.1719C69.8418 47.043 69.9863 46.8242 70.0918 46.5156L70.2969 45.9707L68.0703 39.6602H69.6055L70.9473 43.9609ZM78.3418 44.248L80.2168 39.6602H81.998V46H80.5742V41.8047L78.8281 46H77.8613L76.1094 41.7812V46H74.6855V39.6602H76.4785L78.3418 44.248ZM88.9707 46H87.5469V43.4395H85.0801V46H83.6562V39.6602H85.0801V42.3027H87.5469V39.6602H88.9707V46ZM92.0234 41.6758H93.418C93.9375 41.6758 94.3906 41.7656 94.7773 41.9453C95.1641 42.125 95.457 42.377 95.6562 42.7012C95.8594 43.0254 95.9609 43.4023 95.9609 43.832C95.9609 44.4844 95.7305 45.0078 95.2695 45.4023C94.8086 45.7969 94.1953 45.9961 93.4297 46H90.5996V39.6602H92.0234V41.6758ZM98.4395 46H97.0156V39.6602H98.4395V46ZM92.0234 42.8184V44.8633H93.4121C93.7598 44.8633 94.0332 44.7773 94.2324 44.6055C94.4355 44.4297 94.5371 44.1816 94.5371 43.8613C94.5371 43.541 94.4375 43.2891 94.2383 43.1055C94.043 42.918 93.7773 42.8223 93.4414 42.8184H92.0234ZM102.939 46.1172C102.037 46.1172 101.305 45.834 100.742 45.2676C100.184 44.6973 99.9043 43.9395 99.9043 42.9941V42.8184C99.9043 42.1855 100.025 41.6211 100.268 41.125C100.514 40.625 100.857 40.2363 101.299 39.959C101.74 39.6816 102.232 39.543 102.775 39.543C103.639 39.543 104.305 39.8184 104.773 40.3691C105.246 40.9199 105.482 41.6992 105.482 42.707V43.2812H101.34C101.383 43.8047 101.557 44.2188 101.861 44.5234C102.17 44.8281 102.557 44.9805 103.021 44.9805C103.674 44.9805 104.205 44.7168 104.615 44.1895L105.383 44.9219C105.129 45.3008 104.789 45.5957 104.363 45.8066C103.941 46.0137 103.467 46.1172 102.939 46.1172ZM102.77 40.6855C102.379 40.6855 102.062 40.8223 101.82 41.0957C101.582 41.3691 101.43 41.75 101.363 42.2383H104.076V42.1328C104.045 41.6562 103.918 41.2969 103.695 41.0547C103.473 40.8086 103.164 40.6855 102.77 40.6855ZM114.57 40.791H112.514V46H111.09V40.791H109.057V39.6602H114.57V40.791ZM117.939 46.1172C117.037 46.1172 116.305 45.834 115.742 45.2676C115.184 44.6973 114.904 43.9395 114.904 42.9941V42.8184C114.904 42.1855 115.025 41.6211 115.268 41.125C115.514 40.625 115.857 40.2363 116.299 39.959C116.74 39.6816 117.232 39.543 117.775 39.543C118.639 39.543 119.305 39.8184 119.773 40.3691C120.246 40.9199 120.482 41.6992 120.482 42.707V43.2812H116.34C116.383 43.8047 116.557 44.2188 116.861 44.5234C117.17 44.8281 117.557 44.9805 118.021 44.9805C118.674 44.9805 119.205 44.7168 119.615 44.1895L120.383 44.9219C120.129 45.3008 119.789 45.5957 119.363 45.8066C118.941 46.0137 118.467 46.1172 117.939 46.1172ZM117.77 40.6855C117.379 40.6855 117.062 40.8223 116.82 41.0957C116.582 41.3691 116.43 41.75 116.363 42.2383H119.076V42.1328C119.045 41.6562 118.918 41.2969 118.695 41.0547C118.473 40.8086 118.164 40.6855 117.77 40.6855ZM123.869 41.7461L125.076 39.6602H126.658L124.719 42.7832L126.723 46H125.152L123.887 43.832L122.627 46H121.045L123.049 42.7832L121.115 39.6602H122.686L123.869 41.7461ZM132.998 46H131.574V43.4395H129.107V46H127.684V39.6602H129.107V42.3027H131.574V39.6602H132.998V46ZM134.252 42.7715C134.252 42.1504 134.375 41.5918 134.621 41.0957C134.867 40.5957 135.213 40.2129 135.658 39.9473C136.104 39.6777 136.615 39.543 137.193 39.543C138.049 39.543 138.742 39.8184 139.273 40.3691C139.809 40.9199 140.098 41.6504 140.141 42.5605L140.146 42.8945C140.146 43.5195 140.025 44.0781 139.783 44.5703C139.545 45.0625 139.201 45.4434 138.752 45.7129C138.307 45.9824 137.791 46.1172 137.205 46.1172C136.311 46.1172 135.594 45.8203 135.055 45.2266C134.52 44.6289 134.252 43.834 134.252 42.8418V42.7715ZM135.676 42.8945C135.676 43.5469 135.811 44.0586 136.08 44.4297C136.35 44.7969 136.725 44.9805 137.205 44.9805C137.686 44.9805 138.059 44.793 138.324 44.418C138.594 44.043 138.729 43.4941 138.729 42.7715C138.729 42.1309 138.59 41.623 138.312 41.248C138.039 40.873 137.666 40.6855 137.193 40.6855C136.729 40.6855 136.359 40.8711 136.086 41.2422C135.812 41.6094 135.676 42.1602 135.676 42.8945ZM146.645 39.6602V46H145.221V40.8086H143.428L143.311 43.0176C143.236 44.0801 143.031 44.8438 142.695 45.3086C142.363 45.7695 141.854 46 141.166 46H140.727L140.721 44.8164L141.014 44.7871C141.326 44.7441 141.553 44.5547 141.693 44.2188C141.838 43.8789 141.93 43.2617 141.969 42.3672L142.086 39.6602H146.645ZM147.893 42.7715C147.893 42.1504 148.016 41.5918 148.262 41.0957C148.508 40.5957 148.854 40.2129 149.299 39.9473C149.744 39.6777 150.256 39.543 150.834 39.543C151.689 39.543 152.383 39.8184 152.914 40.3691C153.449 40.9199 153.738 41.6504 153.781 42.5605L153.787 42.8945C153.787 43.5195 153.666 44.0781 153.424 44.5703C153.186 45.0625 152.842 45.4434 152.393 45.7129C151.947 45.9824 151.432 46.1172 150.846 46.1172C149.951 46.1172 149.234 45.8203 148.695 45.2266C148.16 44.6289 147.893 43.834 147.893 42.8418V42.7715ZM149.316 42.8945C149.316 43.5469 149.451 44.0586 149.721 44.4297C149.99 44.7969 150.365 44.9805 150.846 44.9805C151.326 44.9805 151.699 44.793 151.965 44.418C152.234 44.043 152.369 43.4941 152.369 42.7715C152.369 42.1309 152.23 41.623 151.953 41.248C151.68 40.873 151.307 40.6855 150.834 40.6855C150.369 40.6855 150 40.8711 149.727 41.2422C149.453 41.6094 149.316 42.1602 149.316 42.8945ZM159.213 40.8086H156.459V46H155.041V39.6602H159.213V40.8086ZM163.977 39.6602H165.395V46H163.977V41.7695L161.492 46H160.074V39.6602H161.492V43.8906L163.977 39.6602ZM170.867 39.6602H172.285V46H170.867V41.7695L168.383 46H166.965V39.6602H168.383V43.8906L170.867 39.6602Z" fill="#788891"/>
<path d="M76.9355 22.3369C76.9355 21.6126 76.7484 21.0674 76.374 20.7012C76.0078 20.3268 75.3364 19.9403 74.3599 19.5415C72.5776 18.866 71.2959 18.0767 70.5146 17.1733C69.7334 16.2619 69.3428 15.1877 69.3428 13.9507C69.3428 12.4533 69.8717 11.2529 70.9297 10.3496C71.9958 9.43815 73.3467 8.98242 74.9824 8.98242C76.0729 8.98242 77.0454 9.21436 77.8999 9.67822C78.7544 10.134 79.4095 10.7809 79.8652 11.6191C80.3291 12.4574 80.561 13.4095 80.561 14.4756H76.9844C76.9844 13.6455 76.8053 13.0148 76.4473 12.5835C76.0973 12.144 75.5887 11.9243 74.9214 11.9243C74.2948 11.9243 73.8065 12.1115 73.4565 12.4858C73.1066 12.8521 72.9316 13.3485 72.9316 13.9751C72.9316 14.4634 73.127 14.9069 73.5176 15.3057C73.9082 15.6963 74.5999 16.1032 75.5928 16.5264C77.3262 17.153 78.5835 17.922 79.3647 18.8335C80.1541 19.745 80.5488 20.9046 80.5488 22.3125C80.5488 23.8587 80.0565 25.0672 79.0718 25.938C78.0871 26.8088 76.7484 27.2441 75.0557 27.2441C73.9082 27.2441 72.8625 27.0081 71.9185 26.5361C70.9744 26.0641 70.2339 25.3887 69.6968 24.5098C69.1678 23.6309 68.9033 22.5933 68.9033 21.397H72.5044C72.5044 22.4224 72.7038 23.167 73.1025 23.6309C73.5013 24.0947 74.1523 24.3267 75.0557 24.3267C76.3089 24.3267 76.9355 23.6634 76.9355 22.3369ZM88.0928 27.2441C86.3187 27.2441 84.9352 26.7152 83.9424 25.6572C82.9495 24.5993 82.4531 23.0856 82.4531 21.1162V20.0664C82.4531 17.9831 82.9089 16.3758 83.8203 15.2446C84.7318 14.1134 86.0379 13.5479 87.7388 13.5479C89.3989 13.5479 90.6481 14.0809 91.4863 15.147C92.3245 16.2049 92.7518 17.7756 92.7681 19.8589V21.5557H85.8955C85.9443 22.5322 86.16 23.2484 86.5425 23.7041C86.925 24.1517 87.515 24.3755 88.3125 24.3755C89.4681 24.3755 90.4325 23.9808 91.2056 23.1914L92.5605 25.2788C92.1374 25.8647 91.5229 26.3408 90.7173 26.707C89.9116 27.0651 89.0368 27.2441 88.0928 27.2441ZM85.9199 19.1387H89.3745V18.8213C89.3582 18.0319 89.228 17.4338 88.9839 17.0269C88.7397 16.62 88.3166 16.4165 87.7144 16.4165C87.1121 16.4165 86.6727 16.6322 86.396 17.0635C86.1274 17.4948 85.9688 18.1865 85.9199 19.1387ZM101.24 17.1245L100.092 17.0269C99.1483 17.0269 98.5094 17.4419 98.1758 18.272V27H94.709V13.792H97.9683L98.0659 15.2202C98.6112 14.1053 99.3639 13.5479 100.324 13.5479C100.715 13.5479 101.032 13.6007 101.276 13.7065L101.24 17.1245ZM107.575 22.1172L109.248 13.792H112.849L109.223 27H105.927L102.29 13.792H105.903L107.575 22.1172ZM118.098 27H114.631V13.792H118.098V27ZM114.472 10.374C114.472 9.83691 114.643 9.39746 114.985 9.05566C115.327 8.71387 115.782 8.54297 116.352 8.54297C116.922 8.54297 117.377 8.71387 117.719 9.05566C118.061 9.39746 118.232 9.83691 118.232 10.374C118.232 10.903 118.061 11.3424 117.719 11.6924C117.386 12.0423 116.93 12.2173 116.352 12.2173C115.774 12.2173 115.314 12.0423 114.973 11.6924C114.639 11.3424 114.472 10.903 114.472 10.374ZM125.544 24.3755C126.545 24.3755 127.054 23.7244 127.07 22.4224H130.317C130.301 23.8628 129.857 25.0265 128.986 25.9136C128.116 26.8006 126.993 27.2441 125.617 27.2441C123.916 27.2441 122.618 26.7152 121.723 25.6572C120.828 24.5993 120.372 23.0409 120.356 20.9819V19.9321C120.356 17.8569 120.795 16.2741 121.674 15.1836C122.561 14.0931 123.868 13.5479 125.593 13.5479C127.049 13.5479 128.197 13.9995 129.035 14.9028C129.873 15.798 130.301 17.0716 130.317 18.7236H127.07C127.062 17.9831 126.94 17.4134 126.704 17.0146C126.468 16.6159 126.077 16.4165 125.532 16.4165C124.93 16.4165 124.498 16.6322 124.238 17.0635C123.977 17.4867 123.839 18.3127 123.823 19.5415V20.8843C123.823 21.9585 123.876 22.7113 123.981 23.1426C124.087 23.5658 124.262 23.8791 124.506 24.0825C124.75 24.2778 125.096 24.3755 125.544 24.3755ZM137.604 27.2441C135.83 27.2441 134.447 26.7152 133.454 25.6572C132.461 24.5993 131.965 23.0856 131.965 21.1162V20.0664C131.965 17.9831 132.421 16.3758 133.332 15.2446C134.243 14.1134 135.55 13.5479 137.25 13.5479C138.911 13.5479 140.16 14.0809 140.998 15.147C141.836 16.2049 142.264 17.7756 142.28 19.8589V21.5557H135.407C135.456 22.5322 135.672 23.2484 136.054 23.7041C136.437 24.1517 137.027 24.3755 137.824 24.3755C138.98 24.3755 139.944 23.9808 140.717 23.1914L142.072 25.2788C141.649 25.8647 141.035 26.3408 140.229 26.707C139.423 27.0651 138.549 27.2441 137.604 27.2441ZM135.432 19.1387H138.886V18.8213C138.87 18.0319 138.74 17.4338 138.496 17.0269C138.251 16.62 137.828 16.4165 137.226 16.4165C136.624 16.4165 136.184 16.6322 135.908 17.0635C135.639 17.4948 135.48 18.1865 135.432 19.1387ZM150.166 27V9.22656H154.865C156.94 9.22656 158.592 9.88574 159.821 11.2041C161.058 12.5225 161.689 14.3291 161.713 16.624V19.5049C161.713 21.8405 161.095 23.6756 159.858 25.0103C158.629 26.3368 156.932 27 154.768 27H150.166ZM153.754 12.2173V24.0215H154.829C156.025 24.0215 156.867 23.7082 157.355 23.0815C157.844 22.4468 158.1 21.3563 158.125 19.8101V16.7217C158.125 15.0615 157.893 13.9059 157.429 13.2549C156.965 12.5957 156.175 12.2498 155.061 12.2173H153.754ZM169.465 27.2441C167.691 27.2441 166.307 26.7152 165.314 25.6572C164.322 24.5993 163.825 23.0856 163.825 21.1162V20.0664C163.825 17.9831 164.281 16.3758 165.192 15.2446C166.104 14.1134 167.41 13.5479 169.111 13.5479C170.771 13.5479 172.02 14.0809 172.858 15.147C173.697 16.2049 174.124 17.7756 174.14 19.8589V21.5557H167.268C167.316 22.5322 167.532 23.2484 167.915 23.7041C168.297 24.1517 168.887 24.3755 169.685 24.3755C170.84 24.3755 171.805 23.9808 172.578 23.1914L173.933 25.2788C173.509 25.8647 172.895 26.3408 172.089 26.707C171.284 27.0651 170.409 27.2441 169.465 27.2441ZM167.292 19.1387H170.747V18.8213C170.73 18.0319 170.6 17.4338 170.356 17.0269C170.112 16.62 169.689 16.4165 169.086 16.4165C168.484 16.4165 168.045 16.6322 167.768 17.0635C167.5 17.4948 167.341 18.1865 167.292 19.1387ZM180.256 22.1172L181.928 13.792H185.529L181.904 27H178.608L174.97 13.792H178.583L180.256 22.1172ZM190.778 27H187.312V13.792H190.778V27ZM187.153 10.374C187.153 9.83691 187.324 9.39746 187.666 9.05566C188.007 8.71387 188.463 8.54297 189.033 8.54297C189.602 8.54297 190.058 8.71387 190.4 9.05566C190.742 9.39746 190.913 9.83691 190.913 10.374C190.913 10.903 190.742 11.3424 190.4 11.6924C190.066 12.0423 189.611 12.2173 189.033 12.2173C188.455 12.2173 187.995 12.0423 187.653 11.6924C187.32 11.3424 187.153 10.903 187.153 10.374ZM198.225 24.3755C199.226 24.3755 199.734 23.7244 199.75 22.4224H202.998C202.981 23.8628 202.538 25.0265 201.667 25.9136C200.796 26.8006 199.673 27.2441 198.298 27.2441C196.597 27.2441 195.299 26.7152 194.404 25.6572C193.509 24.5993 193.053 23.0409 193.037 20.9819V19.9321C193.037 17.8569 193.476 16.2741 194.355 15.1836C195.242 14.0931 196.548 13.5479 198.273 13.5479C199.73 13.5479 200.878 13.9995 201.716 14.9028C202.554 15.798 202.981 17.0716 202.998 18.7236H199.75C199.742 17.9831 199.62 17.4134 199.384 17.0146C199.148 16.6159 198.758 16.4165 198.212 16.4165C197.61 16.4165 197.179 16.6322 196.918 17.0635C196.658 17.4867 196.52 18.3127 196.503 19.5415V20.8843C196.503 21.9585 196.556 22.7113 196.662 23.1426C196.768 23.5658 196.943 23.8791 197.187 24.0825C197.431 24.2778 197.777 24.3755 198.225 24.3755ZM210.285 27.2441C208.511 27.2441 207.128 26.7152 206.135 25.6572C205.142 24.5993 204.646 23.0856 204.646 21.1162V20.0664C204.646 17.9831 205.101 16.3758 206.013 15.2446C206.924 14.1134 208.23 13.5479 209.931 13.5479C211.591 13.5479 212.84 14.0809 213.679 15.147C214.517 16.2049 214.944 17.7756 214.96 19.8589V21.5557H208.088C208.137 22.5322 208.352 23.2484 208.735 23.7041C209.117 24.1517 209.707 24.3755 210.505 24.3755C211.66 24.3755 212.625 23.9808 213.398 23.1914L214.753 25.2788C214.33 25.8647 213.715 26.3408 212.91 26.707C212.104 27.0651 211.229 27.2441 210.285 27.2441ZM208.112 19.1387H211.567V18.8213C211.551 18.0319 211.42 17.4338 211.176 17.0269C210.932 16.62 210.509 16.4165 209.907 16.4165C209.305 16.4165 208.865 16.6322 208.588 17.0635C208.32 17.4948 208.161 18.1865 208.112 19.1387Z" fill="#203C42"/>
<path d="M32.0668 13.8665C33.1952 13.8665 34.1485 14.5936 34.5073 15.5998H43.4929C43.8517 14.5936 44.805 13.8665 45.9334 13.8665C47.3669 13.8665 48.5334 15.033 48.5334 16.4664C48.5334 17.8999 47.3669 19.0664 45.9334 19.0664C44.805 19.0664 43.8517 18.3392 43.4929 17.3331H34.5064C34.1476 18.3392 33.1943 19.0664 32.0659 19.0664C30.6324 19.0664 29.4659 17.8999 29.4659 16.4664C29.4659 15.033 30.6333 13.8665 32.0668 13.8665ZM45.9334 17.3331C46.411 17.3331 46.8001 16.9448 46.8001 16.4664C46.8001 15.988 46.411 15.5998 45.9334 15.5998C45.4559 15.5998 45.0668 15.988 45.0668 16.4664C45.0668 16.9448 45.4559 17.3331 45.9334 17.3331ZM32.0668 17.3331C32.5443 17.3331 32.9334 16.9448 32.9334 16.4664C32.9334 15.988 32.5443 15.5998 32.0668 15.5998C31.5892 15.5998 31.2001 15.988 31.2001 16.4664C31.2001 16.9448 31.5892 17.3331 32.0668 17.3331Z" fill="#00B2FF"/>
<path d="M25.1333 19.2257V13.8664C25.1333 13.6358 25.2243 13.4157 25.3872 13.2536L28.8539 9.78704C29.0159 9.62411 29.2369 9.53311 29.4666 9.53311H32.2261C32.5849 8.52693 33.5382 7.7998 34.6666 7.7998C36.1001 7.7998 37.2666 8.96632 37.2666 10.3998C37.2666 11.8332 36.1001 12.9997 34.6666 12.9997C33.5382 12.9997 32.5849 12.2726 32.2261 11.2664H29.8254L26.8666 14.2252V19.2257C27.8728 19.5845 28.5999 20.5379 28.5999 21.6662C28.5999 23.0997 27.4334 24.2662 25.9999 24.2662C24.5665 24.2662 23.3999 23.0997 23.3999 21.6662C23.3999 20.5379 24.1271 19.5845 25.1333 19.2257ZM34.6666 11.2664C35.1441 11.2664 35.5333 10.8782 35.5333 10.3998C35.5333 9.92137 35.1441 9.53311 34.6666 9.53311C34.1891 9.53311 33.7999 9.92137 33.7999 10.3998C33.7999 10.8782 34.1891 11.2664 34.6666 11.2664ZM25.9999 22.5329C26.4775 22.5329 26.8666 22.1446 26.8666 21.6662C26.8666 21.1878 26.4775 20.7996 25.9999 20.7996C25.5224 20.7996 25.1333 21.1878 25.1333 21.6662C25.1333 22.1446 25.5224 22.5329 25.9999 22.5329Z" fill="#00B2FF"/>
<path d="M9.53333 22.533C9.93373 22.533 10.3081 22.6309 10.647 22.7938L12.1333 21.3075V12.9998C12.1333 12.7693 12.2243 12.5491 12.3873 12.3871L21.0609 3.7136C20.8979 3.37474 20.8 3.00035 20.8 2.59996C20.8 1.16651 21.9665 0 23.4 0C24.8335 0 26 1.16651 26 2.59996C26 4.0334 24.8335 5.19991 23.4 5.19991C22.9996 5.19991 22.6252 5.10198 22.2863 4.93905L13.8667 13.3586V21.6663C13.8667 21.8968 13.7757 22.117 13.6127 22.279L11.8725 24.0193C12.0354 24.3581 12.1333 24.7325 12.1333 25.1329C12.1333 26.5664 10.9668 27.7329 9.53333 27.7329C8.09987 27.7329 6.93333 26.5664 6.93333 25.1329C6.93333 23.6995 8.09987 22.533 9.53333 22.533ZM23.4 3.46661C23.8775 3.46661 24.2667 3.07835 24.2667 2.59996C24.2667 2.12156 23.8775 1.7333 23.4 1.7333C22.9225 1.7333 22.5333 2.12156 22.5333 2.59996C22.5333 3.07835 22.9225 3.46661 23.4 3.46661ZM9.53333 25.9996C10.0109 25.9996 10.4 25.6113 10.4 25.1329C10.4 24.6545 10.0109 24.2663 9.53333 24.2663C9.0558 24.2663 8.66667 24.6545 8.66667 25.1329C8.66667 25.6113 9.0558 25.9996 9.53333 25.9996Z" fill="#00B2FF"/>
<path d="M1.73328 12.2926V8.66652C1.73328 8.43599 1.82428 8.21586 1.98722 8.0538L8.05388 1.98723C8.21595 1.8243 8.43695 1.7333 8.66662 1.7333H13.1594C13.5182 0.727121 14.4716 0 15.6 0C17.0334 0 18.2 1.16651 18.2 2.59996C18.2 4.0334 17.0334 5.19991 15.6 5.19991C14.4716 5.19991 13.5182 4.47279 13.1594 3.46661H9.02542L3.46662 9.02532V12.2926C4.47282 12.6514 5.19995 13.6047 5.19995 14.7331C5.19995 16.1665 4.03342 17.333 2.59995 17.333C1.16648 17.333 -4.8995e-05 16.1665 -4.8995e-05 14.7331C-4.8995e-05 13.6047 0.727084 12.6514 1.73328 12.2926ZM15.6 3.46661C16.0775 3.46661 16.4666 3.07835 16.4666 2.59996C16.4666 2.12156 16.0775 1.7333 15.6 1.7333C15.1224 1.7333 14.7333 2.12156 14.7333 2.59996C14.7333 3.07835 15.1224 3.46661 15.6 3.46661ZM2.59995 15.5997C3.07748 15.5997 3.46662 15.2115 3.46662 14.7331C3.46662 14.2547 3.07748 13.8664 2.59995 13.8664C2.12242 13.8664 1.73328 14.2547 1.73328 14.7331C1.73328 15.2115 2.12242 15.5997 2.59995 15.5997Z" fill="#00B2FF"/>
<path d="M13.8658 46.9596V34.5067C12.8604 34.1479 12.1333 33.1946 12.1333 32.0662C12.1333 30.6328 13.2998 29.4663 14.7333 29.4663C15.8617 29.4663 16.815 30.1934 17.1738 31.1996H26.1594C26.5182 30.1934 27.4716 29.4663 28.6 29.4663C29.7284 29.4663 30.6817 30.1934 31.0405 31.1996H36.0412L39.2608 27.98C39.0979 27.6411 39 27.2667 39 26.8663C39 25.4329 40.1665 24.2664 41.6 24.2664C43.0334 24.2664 44.2 25.4329 44.2 26.8663C44.2 28.2998 43.0334 29.4663 41.6 29.4663C41.1996 29.4663 40.8252 29.3683 40.4863 29.2054L37.0127 32.679C36.8506 32.8419 36.6296 32.9329 36.4 32.9329H31.0405C30.6817 33.9391 29.7284 34.6662 28.6 34.6662C27.4716 34.6662 26.5182 33.9391 26.1594 32.9329H17.173C16.9112 33.6669 16.3332 34.245 15.5991 34.5067V46.9596C16.6053 47.3184 17.3324 48.2718 17.3324 49.4001C17.3324 50.8336 16.1659 52.0001 14.7324 52.0001C13.299 52.0001 12.1324 50.8336 12.1324 49.4001C12.1324 48.2718 12.8596 47.3184 13.8658 46.9596ZM41.6 27.733C42.0775 27.733 42.4666 27.3447 42.4666 26.8663C42.4666 26.3879 42.0775 25.9997 41.6 25.9997C41.1224 25.9997 40.7333 26.3879 40.7333 26.8663C40.7333 27.3447 41.1224 27.733 41.6 27.733ZM28.6 32.9329C29.0775 32.9329 29.4666 32.5446 29.4666 32.0662C29.4666 31.5878 29.0775 31.1996 28.6 31.1996C28.1224 31.1996 27.7333 31.5878 27.7333 32.0662C27.7333 32.5446 28.1224 32.9329 28.6 32.9329ZM14.7333 50.2659C15.2108 50.2659 15.6 49.8777 15.6 49.3993C15.6 48.9209 15.2108 48.5326 14.7333 48.5326C14.2558 48.5326 13.8666 48.9209 13.8666 49.3993C13.8666 49.8777 14.2558 50.2659 14.7333 50.2659ZM14.7333 32.9329C15.2108 32.9329 15.6 32.5446 15.6 32.0662C15.6 31.5878 15.2108 31.1996 14.7333 31.1996C14.2558 31.1996 13.8666 31.5878 13.8666 32.0662C13.8666 32.5446 14.2558 32.9329 14.7333 32.9329Z" fill="#00B2FF"/>
<path d="M18.2 17.4925V14.7331C18.2 14.5026 18.291 14.2824 18.4539 14.1204L28.8609 3.7136C28.6979 3.37474 28.6 3.00035 28.6 2.59996C28.6 1.16651 29.7665 0 31.2 0C32.3284 0 33.2817 0.727121 33.6405 1.7333H37.2667C37.7451 1.7333 38.1333 2.1207 38.1333 2.59996V4.84112L41.353 8.06073C41.6919 7.8978 42.0663 7.79987 42.4667 7.79987C43.9001 7.79987 45.0667 8.96638 45.0667 10.3998C45.0667 11.8333 43.9001 12.9998 42.4667 12.9998C41.0332 12.9998 39.8667 11.8333 39.8667 10.3998C39.8667 9.99943 39.9646 9.62504 40.1275 9.28618L36.6539 5.81264C36.491 5.65057 36.4 5.43044 36.4 5.19991V3.46661H33.6405C33.2817 4.47279 32.3284 5.19991 31.2 5.19991C30.7996 5.19991 30.4252 5.10198 30.0863 4.93905L19.9333 15.0919V17.4925C20.9395 17.8513 21.6667 18.8046 21.6667 19.933C21.6667 21.3664 20.5001 22.533 19.0667 22.533C17.6332 22.533 16.4667 21.3664 16.4667 19.933C16.4667 18.8046 17.1938 17.8513 18.2 17.4925ZM42.4667 11.2665C42.9442 11.2665 43.3333 10.8782 43.3333 10.3998C43.3333 9.92143 42.9442 9.53317 42.4667 9.53317C41.9891 9.53317 41.6 9.92143 41.6 10.3998C41.6 10.8782 41.9891 11.2665 42.4667 11.2665ZM31.2 3.46661C31.6775 3.46661 32.0667 3.07835 32.0667 2.59996C32.0667 2.12156 31.6775 1.7333 31.2 1.7333C30.7225 1.7333 30.3333 2.12156 30.3333 2.59996C30.3333 3.07835 30.7225 3.46661 31.2 3.46661ZM19.0667 20.7997C19.5442 20.7997 19.9333 20.4114 19.9333 19.933C19.9333 19.4546 19.5442 19.0663 19.0667 19.0663C18.5891 19.0663 18.2 19.4546 18.2 19.933C18.2 20.4114 18.5891 20.7997 19.0667 20.7997Z" fill="#00B2FF"/>
<path d="M20.8 24.2663C21.9284 24.2663 22.8817 24.9934 23.2405 25.9996H33.4412L38.3873 21.0536C38.5493 20.8907 38.7703 20.7997 39 20.7997H48.1745L50.2667 18.7076V11.6253L43.5803 4.93905C43.2415 5.10198 42.8671 5.19991 42.4667 5.19991C41.0332 5.19991 39.8667 4.0334 39.8667 2.59996C39.8667 1.16651 41.0332 0 42.4667 0C43.9001 0 45.0667 1.16651 45.0667 2.59996C45.0667 3.00035 44.9687 3.37474 44.8058 3.7136L51.7461 10.6538C51.909 10.8158 52 11.0359 52 11.2665V19.0663C52 19.2969 51.909 19.517 51.7461 19.6791L49.1461 22.279C48.984 22.442 48.763 22.533 48.5333 22.533H39.3588L34.4127 27.4789C34.2507 27.6419 34.0297 27.7329 33.8 27.7329H23.2405C22.8817 28.7391 21.9284 29.4662 20.8 29.4662C19.3665 29.4662 18.2 28.2997 18.2 26.8662C18.2 25.4328 19.3665 24.2663 20.8 24.2663ZM42.4667 1.7333C41.9891 1.7333 41.6 2.12156 41.6 2.59996C41.6 3.07835 41.9891 3.46661 42.4667 3.46661C42.9442 3.46661 43.3333 3.07835 43.3333 2.59996C43.3333 2.12156 42.9442 1.7333 42.4667 1.7333ZM20.8 27.7329C21.2775 27.7329 21.6667 27.3446 21.6667 26.8662C21.6667 26.3878 21.2775 25.9996 20.8 25.9996C20.3225 25.9996 19.9333 26.3878 19.9333 26.8662C19.9333 27.3446 20.3225 27.7329 20.8 27.7329Z" fill="#00B2FF"/>
<path d="M2.59997 20.7996C3.00037 20.7996 3.37477 20.8975 3.71363 21.0605L6.9333 17.8408V12.8403C5.9271 12.4815 5.19997 11.5281 5.19997 10.3998C5.19997 8.96632 6.3665 7.7998 7.79997 7.7998C9.23343 7.7998 10.4 8.96632 10.4 10.3998C10.4 11.5281 9.67283 12.4815 8.66663 12.8403V18.1996C8.66663 18.4302 8.57563 18.6503 8.4127 18.8124L4.9391 22.2859C5.10204 22.6248 5.19997 22.9992 5.19997 23.3995C5.19997 24.5279 4.47283 25.4812 3.46663 25.84V26.5074L10.146 33.1866C10.309 33.3487 10.4 33.5688 10.4 33.7994V34.8255C11.4062 35.1843 12.1333 36.1376 12.1333 37.266C12.1333 38.3944 11.4062 39.3477 10.4 39.7065V41.7596C11.4062 42.1184 12.1333 43.0717 12.1333 44.2001C12.1333 45.6335 10.9668 46.8 9.5333 46.8C8.09983 46.8 6.9333 45.6335 6.9333 44.2001C6.9333 43.0717 7.66043 42.1184 8.66663 41.7596V39.7065C7.66043 39.3477 6.9333 38.3944 6.9333 37.266C6.9333 36.1376 7.66043 35.1843 8.66663 34.8255V34.1582L1.98723 27.4789C1.8243 27.3168 1.7333 27.0967 1.7333 26.8662V25.84C0.727101 25.4812 -3.26633e-05 24.5279 -3.26633e-05 23.3995C-3.26633e-05 21.9661 1.1665 20.7996 2.59997 20.7996ZM7.79997 11.2664C8.2775 11.2664 8.66663 10.8782 8.66663 10.3998C8.66663 9.92137 8.2775 9.53311 7.79997 9.53311C7.32243 9.53311 6.9333 9.92137 6.9333 10.3998C6.9333 10.8782 7.32243 11.2664 7.79997 11.2664ZM9.5333 45.0659C10.0108 45.0659 10.4 44.6776 10.4 44.1992C10.4 43.7208 10.0108 43.3325 9.5333 43.3325C9.05577 43.3325 8.66663 43.7208 8.66663 44.1992C8.66663 44.6776 9.05577 45.0659 9.5333 45.0659ZM9.5333 38.1326C10.0108 38.1326 10.4 37.7444 10.4 37.266C10.4 36.7876 10.0108 36.3993 9.5333 36.3993C9.05577 36.3993 8.66663 36.7876 8.66663 37.266C8.66663 37.7444 9.05577 38.1326 9.5333 38.1326ZM2.59997 24.2662C3.0775 24.2662 3.46663 23.8779 3.46663 23.3995C3.46663 22.9212 3.0775 22.5329 2.59997 22.5329C2.12243 22.5329 1.7333 22.9212 1.7333 23.3995C1.7333 23.8779 2.12243 24.2662 2.59997 24.2662Z" fill="#00B2FF"/>
</symbol><symbol id="icon-logo-header-desktop" viewBox="0 0 202 52">
<path d="M76.9355 24.3369C76.9355 23.6126 76.7484 23.0674 76.374 22.7012C76.0078 22.3268 75.3364 21.9403 74.3599 21.5415C72.5776 20.866 71.2959 20.0767 70.5146 19.1733C69.7334 18.2619 69.3428 17.1877 69.3428 15.9507C69.3428 14.4533 69.8717 13.2529 70.9297 12.3496C71.9958 11.4382 73.3467 10.9824 74.9824 10.9824C76.0729 10.9824 77.0454 11.2144 77.8999 11.6782C78.7544 12.134 79.4095 12.7809 79.8652 13.6191C80.3291 14.4574 80.561 15.4095 80.561 16.4756H76.9844C76.9844 15.6455 76.8053 15.0148 76.4473 14.5835C76.0973 14.144 75.5887 13.9243 74.9214 13.9243C74.2948 13.9243 73.8065 14.1115 73.4565 14.4858C73.1066 14.8521 72.9316 15.3485 72.9316 15.9751C72.9316 16.4634 73.127 16.9069 73.5176 17.3057C73.9082 17.6963 74.5999 18.1032 75.5928 18.5264C77.3262 19.153 78.5835 19.922 79.3647 20.8335C80.1541 21.745 80.5488 22.9046 80.5488 24.3125C80.5488 25.8587 80.0565 27.0672 79.0718 27.938C78.0871 28.8088 76.7484 29.2441 75.0557 29.2441C73.9082 29.2441 72.8625 29.0081 71.9185 28.5361C70.9744 28.0641 70.2339 27.3887 69.6968 26.5098C69.1678 25.6309 68.9033 24.5933 68.9033 23.397H72.5044C72.5044 24.4224 72.7038 25.167 73.1025 25.6309C73.5013 26.0947 74.1523 26.3267 75.0557 26.3267C76.3089 26.3267 76.9355 25.6634 76.9355 24.3369ZM86.0054 15.792L86.103 17.0127C86.8761 16.0361 87.8975 15.5479 89.167 15.5479C90.4854 15.5479 91.4172 16.1419 91.9624 17.3301C92.7192 16.1419 93.7975 15.5479 95.1973 15.5479C97.5085 15.5479 98.6925 17.147 98.7495 20.3452V29H95.2949V20.5649C95.2949 19.8 95.1891 19.2547 94.9775 18.9292C94.766 18.6037 94.4079 18.4409 93.9033 18.4409C93.2604 18.4409 92.7803 18.8356 92.4629 19.625L92.4873 20.04V29H89.0327V20.5894C89.0327 19.8325 88.931 19.2873 88.7275 18.9536C88.5241 18.6118 88.1619 18.4409 87.6411 18.4409C87.047 18.4409 86.575 18.7624 86.2251 19.4053V29H82.7705V15.792H86.0054ZM107.587 29C107.49 28.7965 107.392 28.4548 107.294 27.9746C106.676 28.821 105.838 29.2441 104.78 29.2441C103.673 29.2441 102.753 28.8779 102.021 28.1455C101.297 27.4131 100.935 26.465 100.935 25.3013C100.935 23.9178 101.374 22.8477 102.253 22.0908C103.14 21.334 104.414 20.9474 106.074 20.9312H107.124V19.8691C107.124 19.2751 107.022 18.856 106.818 18.6118C106.615 18.3677 106.318 18.2456 105.927 18.2456C105.065 18.2456 104.633 18.7502 104.633 19.7593H101.179C101.179 18.5386 101.634 17.5335 102.546 16.7441C103.465 15.9466 104.625 15.5479 106.025 15.5479C107.473 15.5479 108.592 15.9263 109.382 16.6831C110.179 17.4318 110.578 18.506 110.578 19.9058V26.1191C110.594 27.2585 110.757 28.1496 111.066 28.7925V29H107.587ZM105.549 26.5342C105.931 26.5342 106.257 26.4569 106.525 26.3022C106.794 26.1476 106.993 25.9645 107.124 25.7529V23.0063H106.293C105.708 23.0063 105.244 23.1935 104.902 23.5679C104.568 23.9422 104.401 24.4427 104.401 25.0693C104.401 26.0459 104.784 26.5342 105.549 26.5342ZM119.599 19.1245L118.452 19.0269C117.508 19.0269 116.869 19.4419 116.535 20.272V29H113.068V15.792H116.328L116.425 17.2202C116.971 16.1053 117.723 15.5479 118.684 15.5479C119.074 15.5479 119.392 15.6007 119.636 15.7065L119.599 19.1245ZM126.008 12.5449V15.792H127.778V18.3921H126.008V24.9473C126.008 25.4681 126.077 25.8262 126.215 26.0215C126.362 26.2168 126.639 26.3145 127.045 26.3145C127.379 26.3145 127.652 26.286 127.863 26.229L127.839 28.9146C127.253 29.1343 126.618 29.2441 125.935 29.2441C123.705 29.2441 122.578 27.9665 122.553 25.4111V18.3921H121.027V15.792H122.553V12.5449H126.008ZM135.615 29V11.2266H140.314C142.39 11.2266 144.042 11.8857 145.271 13.2041C146.507 14.5225 147.138 16.3291 147.163 18.624V21.5049C147.163 23.8405 146.544 25.6756 145.307 27.0103C144.078 28.3368 142.382 29 140.217 29H135.615ZM139.204 14.2173V26.0215H140.278C141.474 26.0215 142.316 25.7082 142.805 25.0815C143.293 24.4468 143.549 23.3563 143.574 21.8101V18.7217C143.574 17.0615 143.342 15.9059 142.878 15.2549C142.414 14.5957 141.625 14.2498 140.51 14.2173H139.204ZM154.914 29.2441C153.14 29.2441 151.757 28.7152 150.764 27.6572C149.771 26.5993 149.274 25.0856 149.274 23.1162V22.0664C149.274 19.9831 149.73 18.3758 150.642 17.2446C151.553 16.1134 152.859 15.5479 154.56 15.5479C156.22 15.5479 157.469 16.0809 158.308 17.147C159.146 18.2049 159.573 19.7756 159.589 21.8589V23.5557H152.717C152.766 24.5322 152.981 25.2484 153.364 25.7041C153.746 26.1517 154.336 26.3755 155.134 26.3755C156.289 26.3755 157.254 25.9808 158.027 25.1914L159.382 27.2788C158.959 27.8647 158.344 28.3408 157.539 28.707C156.733 29.0651 155.858 29.2441 154.914 29.2441ZM152.741 21.1387H156.196V20.8213C156.18 20.0319 156.049 19.4338 155.805 19.0269C155.561 18.62 155.138 18.4165 154.536 18.4165C153.933 18.4165 153.494 18.6322 153.217 19.0635C152.949 19.4948 152.79 20.1865 152.741 21.1387ZM165.705 24.1172L167.377 15.792H170.979L167.353 29H164.057L160.419 15.792H164.033L165.705 24.1172ZM176.228 29H172.761V15.792H176.228V29ZM172.602 12.374C172.602 11.8369 172.773 11.3975 173.115 11.0557C173.457 10.7139 173.912 10.543 174.482 10.543C175.052 10.543 175.507 10.7139 175.849 11.0557C176.191 11.3975 176.362 11.8369 176.362 12.374C176.362 12.903 176.191 13.3424 175.849 13.6924C175.515 14.0423 175.06 14.2173 174.482 14.2173C173.904 14.2173 173.444 14.0423 173.103 13.6924C172.769 13.3424 172.602 12.903 172.602 12.374ZM183.674 26.3755C184.675 26.3755 185.183 25.7244 185.2 24.4224H188.447C188.431 25.8628 187.987 27.0265 187.116 27.9136C186.245 28.8006 185.122 29.2441 183.747 29.2441C182.046 29.2441 180.748 28.7152 179.853 27.6572C178.958 26.5993 178.502 25.0409 178.486 22.9819V21.9321C178.486 19.8569 178.925 18.2741 179.804 17.1836C180.691 16.0931 181.997 15.5479 183.723 15.5479C185.179 15.5479 186.327 15.9995 187.165 16.9028C188.003 17.798 188.431 19.0716 188.447 20.7236H185.2C185.192 19.9831 185.069 19.4134 184.833 19.0146C184.597 18.6159 184.207 18.4165 183.662 18.4165C183.059 18.4165 182.628 18.6322 182.368 19.0635C182.107 19.4867 181.969 20.3127 181.953 21.5415V22.8843C181.953 23.9585 182.006 24.7113 182.111 25.1426C182.217 25.5658 182.392 25.8791 182.636 26.0825C182.88 26.2778 183.226 26.3755 183.674 26.3755ZM195.734 29.2441C193.96 29.2441 192.577 28.7152 191.584 27.6572C190.591 26.5993 190.095 25.0856 190.095 23.1162V22.0664C190.095 19.9831 190.55 18.3758 191.462 17.2446C192.373 16.1134 193.68 15.5479 195.38 15.5479C197.041 15.5479 198.29 16.0809 199.128 17.147C199.966 18.2049 200.393 19.7756 200.41 21.8589V23.5557H193.537C193.586 24.5322 193.802 25.2484 194.184 25.7041C194.567 26.1517 195.157 26.3755 195.954 26.3755C197.11 26.3755 198.074 25.9808 198.847 25.1914L200.202 27.2788C199.779 27.8647 199.165 28.3408 198.359 28.707C197.553 29.0651 196.678 29.2441 195.734 29.2441ZM193.562 21.1387H197.016V20.8213C197 20.0319 196.87 19.4338 196.625 19.0269C196.381 18.62 195.958 18.4165 195.356 18.4165C194.754 18.4165 194.314 18.6322 194.038 19.0635C193.769 19.4948 193.61 20.1865 193.562 21.1387Z" fill="white"/>
<path d="M70.9473 44.9609L72.2363 40.6602H73.7539L71.2344 47.9609C70.8477 49.0273 70.1914 49.5605 69.2656 49.5605C69.0586 49.5605 68.8301 49.5254 68.5801 49.4551V48.3535L68.8496 48.3711C69.209 48.3711 69.4785 48.3047 69.6582 48.1719C69.8418 48.043 69.9863 47.8242 70.0918 47.5156L70.2969 46.9707L68.0703 40.6602H69.6055L70.9473 44.9609ZM78.3418 45.248L80.2168 40.6602H81.998V47H80.5742V42.8047L78.8281 47H77.8613L76.1094 42.7812V47H74.6855V40.6602H76.4785L78.3418 45.248ZM88.9707 47H87.5469V44.4395H85.0801V47H83.6562V40.6602H85.0801V43.3027H87.5469V40.6602H88.9707V47ZM92.0234 42.6758H93.418C93.9375 42.6758 94.3906 42.7656 94.7773 42.9453C95.1641 43.125 95.457 43.377 95.6562 43.7012C95.8594 44.0254 95.9609 44.4023 95.9609 44.832C95.9609 45.4844 95.7305 46.0078 95.2695 46.4023C94.8086 46.7969 94.1953 46.9961 93.4297 47H90.5996V40.6602H92.0234V42.6758ZM98.4395 47H97.0156V40.6602H98.4395V47ZM92.0234 43.8184V45.8633H93.4121C93.7598 45.8633 94.0332 45.7773 94.2324 45.6055C94.4355 45.4297 94.5371 45.1816 94.5371 44.8613C94.5371 44.541 94.4375 44.2891 94.2383 44.1055C94.043 43.918 93.7773 43.8223 93.4414 43.8184H92.0234ZM102.939 47.1172C102.037 47.1172 101.305 46.834 100.742 46.2676C100.184 45.6973 99.9043 44.9395 99.9043 43.9941V43.8184C99.9043 43.1855 100.025 42.6211 100.268 42.125C100.514 41.625 100.857 41.2363 101.299 40.959C101.74 40.6816 102.232 40.543 102.775 40.543C103.639 40.543 104.305 40.8184 104.773 41.3691C105.246 41.9199 105.482 42.6992 105.482 43.707V44.2812H101.34C101.383 44.8047 101.557 45.2188 101.861 45.5234C102.17 45.8281 102.557 45.9805 103.021 45.9805C103.674 45.9805 104.205 45.7168 104.615 45.1895L105.383 45.9219C105.129 46.3008 104.789 46.5957 104.363 46.8066C103.941 47.0137 103.467 47.1172 102.939 47.1172ZM102.77 41.6855C102.379 41.6855 102.062 41.8223 101.82 42.0957C101.582 42.3691 101.43 42.75 101.363 43.2383H104.076V43.1328C104.045 42.6562 103.918 42.2969 103.695 42.0547C103.473 41.8086 103.164 41.6855 102.77 41.6855ZM114.57 41.791H112.514V47H111.09V41.791H109.057V40.6602H114.57V41.791ZM117.939 47.1172C117.037 47.1172 116.305 46.834 115.742 46.2676C115.184 45.6973 114.904 44.9395 114.904 43.9941V43.8184C114.904 43.1855 115.025 42.6211 115.268 42.125C115.514 41.625 115.857 41.2363 116.299 40.959C116.74 40.6816 117.232 40.543 117.775 40.543C118.639 40.543 119.305 40.8184 119.773 41.3691C120.246 41.9199 120.482 42.6992 120.482 43.707V44.2812H116.34C116.383 44.8047 116.557 45.2188 116.861 45.5234C117.17 45.8281 117.557 45.9805 118.021 45.9805C118.674 45.9805 119.205 45.7168 119.615 45.1895L120.383 45.9219C120.129 46.3008 119.789 46.5957 119.363 46.8066C118.941 47.0137 118.467 47.1172 117.939 47.1172ZM117.77 41.6855C117.379 41.6855 117.062 41.8223 116.82 42.0957C116.582 42.3691 116.43 42.75 116.363 43.2383H119.076V43.1328C119.045 42.6562 118.918 42.2969 118.695 42.0547C118.473 41.8086 118.164 41.6855 117.77 41.6855ZM123.869 42.7461L125.076 40.6602H126.658L124.719 43.7832L126.723 47H125.152L123.887 44.832L122.627 47H121.045L123.049 43.7832L121.115 40.6602H122.686L123.869 42.7461ZM132.998 47H131.574V44.4395H129.107V47H127.684V40.6602H129.107V43.3027H131.574V40.6602H132.998V47ZM134.252 43.7715C134.252 43.1504 134.375 42.5918 134.621 42.0957C134.867 41.5957 135.213 41.2129 135.658 40.9473C136.104 40.6777 136.615 40.543 137.193 40.543C138.049 40.543 138.742 40.8184 139.273 41.3691C139.809 41.9199 140.098 42.6504 140.141 43.5605L140.146 43.8945C140.146 44.5195 140.025 45.0781 139.783 45.5703C139.545 46.0625 139.201 46.4434 138.752 46.7129C138.307 46.9824 137.791 47.1172 137.205 47.1172C136.311 47.1172 135.594 46.8203 135.055 46.2266C134.52 45.6289 134.252 44.834 134.252 43.8418V43.7715ZM135.676 43.8945C135.676 44.5469 135.811 45.0586 136.08 45.4297C136.35 45.7969 136.725 45.9805 137.205 45.9805C137.686 45.9805 138.059 45.793 138.324 45.418C138.594 45.043 138.729 44.4941 138.729 43.7715C138.729 43.1309 138.59 42.623 138.312 42.248C138.039 41.873 137.666 41.6855 137.193 41.6855C136.729 41.6855 136.359 41.8711 136.086 42.2422C135.812 42.6094 135.676 43.1602 135.676 43.8945ZM146.645 40.6602V47H145.221V41.8086H143.428L143.311 44.0176C143.236 45.0801 143.031 45.8438 142.695 46.3086C142.363 46.7695 141.854 47 141.166 47H140.727L140.721 45.8164L141.014 45.7871C141.326 45.7441 141.553 45.5547 141.693 45.2188C141.838 44.8789 141.93 44.2617 141.969 43.3672L142.086 40.6602H146.645ZM147.893 43.7715C147.893 43.1504 148.016 42.5918 148.262 42.0957C148.508 41.5957 148.854 41.2129 149.299 40.9473C149.744 40.6777 150.256 40.543 150.834 40.543C151.689 40.543 152.383 40.8184 152.914 41.3691C153.449 41.9199 153.738 42.6504 153.781 43.5605L153.787 43.8945C153.787 44.5195 153.666 45.0781 153.424 45.5703C153.186 46.0625 152.842 46.4434 152.393 46.7129C151.947 46.9824 151.432 47.1172 150.846 47.1172C149.951 47.1172 149.234 46.8203 148.695 46.2266C148.16 45.6289 147.893 44.834 147.893 43.8418V43.7715ZM149.316 43.8945C149.316 44.5469 149.451 45.0586 149.721 45.4297C149.99 45.7969 150.365 45.9805 150.846 45.9805C151.326 45.9805 151.699 45.793 151.965 45.418C152.234 45.043 152.369 44.4941 152.369 43.7715C152.369 43.1309 152.23 42.623 151.953 42.248C151.68 41.873 151.307 41.6855 150.834 41.6855C150.369 41.6855 150 41.8711 149.727 42.2422C149.453 42.6094 149.316 43.1602 149.316 43.8945ZM159.213 41.8086H156.459V47H155.041V40.6602H159.213V41.8086ZM163.977 40.6602H165.395V47H163.977V42.7695L161.492 47H160.074V40.6602H161.492V44.8906L163.977 40.6602ZM170.867 40.6602H172.285V47H170.867V42.7695L168.383 47H166.965V40.6602H168.383V44.8906L170.867 40.6602Z" fill="#788891"/>
<path d="M32.0668 13.8665C33.1952 13.8665 34.1485 14.5936 34.5073 15.5998H43.4929C43.8517 14.5936 44.805 13.8665 45.9334 13.8665C47.3669 13.8665 48.5334 15.033 48.5334 16.4664C48.5334 17.8999 47.3669 19.0664 45.9334 19.0664C44.805 19.0664 43.8517 18.3392 43.4929 17.3331H34.5064C34.1476 18.3392 33.1943 19.0664 32.0659 19.0664C30.6324 19.0664 29.4659 17.8999 29.4659 16.4664C29.4659 15.033 30.6333 13.8665 32.0668 13.8665ZM45.9334 17.3331C46.411 17.3331 46.8001 16.9448 46.8001 16.4664C46.8001 15.988 46.411 15.5998 45.9334 15.5998C45.4559 15.5998 45.0668 15.988 45.0668 16.4664C45.0668 16.9448 45.4559 17.3331 45.9334 17.3331ZM32.0668 17.3331C32.5443 17.3331 32.9334 16.9448 32.9334 16.4664C32.9334 15.988 32.5443 15.5998 32.0668 15.5998C31.5892 15.5998 31.2001 15.988 31.2001 16.4664C31.2001 16.9448 31.5892 17.3331 32.0668 17.3331Z" fill="#00B2FF"/>
<path d="M25.1333 19.2259V13.8665C25.1333 13.636 25.2243 13.4158 25.3872 13.2538L28.8539 9.78716C29.0159 9.62423 29.2369 9.53323 29.4666 9.53323H32.2261C32.5849 8.52705 33.5382 7.79993 34.6666 7.79993C36.1001 7.79993 37.2666 8.96644 37.2666 10.3999C37.2666 11.8333 36.1001 12.9998 34.6666 12.9998C33.5382 12.9998 32.5849 12.2727 32.2261 11.2665H29.8254L26.8666 14.2253V19.2259C27.8728 19.5847 28.5999 20.538 28.5999 21.6664C28.5999 23.0998 27.4334 24.2663 25.9999 24.2663C24.5665 24.2663 23.3999 23.0998 23.3999 21.6664C23.3999 20.538 24.1271 19.5847 25.1333 19.2259ZM34.6666 11.2665C35.1441 11.2665 35.5333 10.8783 35.5333 10.3999C35.5333 9.92149 35.1441 9.53323 34.6666 9.53323C34.1891 9.53323 33.7999 9.92149 33.7999 10.3999C33.7999 10.8783 34.1891 11.2665 34.6666 11.2665ZM25.9999 22.533C26.4775 22.533 26.8666 22.1448 26.8666 21.6664C26.8666 21.188 26.4775 20.7997 25.9999 20.7997C25.5224 20.7997 25.1333 21.188 25.1333 21.6664C25.1333 22.1448 25.5224 22.533 25.9999 22.533Z" fill="#00B2FF"/>
<path d="M9.53333 22.533C9.93373 22.533 10.3081 22.6309 10.647 22.7938L12.1333 21.3075V12.9998C12.1333 12.7693 12.2243 12.5491 12.3873 12.3871L21.0609 3.7136C20.8979 3.37474 20.8 3.00035 20.8 2.59996C20.8 1.16651 21.9665 0 23.4 0C24.8335 0 26 1.16651 26 2.59996C26 4.0334 24.8335 5.19991 23.4 5.19991C22.9996 5.19991 22.6252 5.10198 22.2863 4.93905L13.8667 13.3586V21.6663C13.8667 21.8968 13.7757 22.117 13.6127 22.279L11.8725 24.0193C12.0354 24.3581 12.1333 24.7325 12.1333 25.1329C12.1333 26.5664 10.9668 27.7329 9.53333 27.7329C8.09986 27.7329 6.93333 26.5664 6.93333 25.1329C6.93333 23.6995 8.09986 22.533 9.53333 22.533ZM23.4 3.46661C23.8775 3.46661 24.2667 3.07835 24.2667 2.59996C24.2667 2.12156 23.8775 1.7333 23.4 1.7333C22.9225 1.7333 22.5333 2.12156 22.5333 2.59996C22.5333 3.07835 22.9225 3.46661 23.4 3.46661ZM9.53333 25.9996C10.0109 25.9996 10.4 25.6113 10.4 25.1329C10.4 24.6545 10.0109 24.2663 9.53333 24.2663C9.0558 24.2663 8.66667 24.6545 8.66667 25.1329C8.66667 25.6113 9.0558 25.9996 9.53333 25.9996Z" fill="#00B2FF"/>
<path d="M1.73328 12.2926V8.66652C1.73328 8.43599 1.82428 8.21586 1.98722 8.0538L8.05388 1.98723C8.21595 1.8243 8.43695 1.7333 8.66662 1.7333H13.1594C13.5182 0.727121 14.4716 0 15.6 0C17.0334 0 18.2 1.16651 18.2 2.59996C18.2 4.0334 17.0334 5.19991 15.6 5.19991C14.4716 5.19991 13.5182 4.47279 13.1594 3.46661H9.02542L3.46662 9.02532V12.2926C4.47282 12.6514 5.19995 13.6047 5.19995 14.7331C5.19995 16.1665 4.03342 17.333 2.59995 17.333C1.16648 17.333 -4.95911e-05 16.1665 -4.95911e-05 14.7331C-4.95911e-05 13.6047 0.727085 12.6514 1.73328 12.2926ZM15.6 3.46661C16.0775 3.46661 16.4666 3.07835 16.4666 2.59996C16.4666 2.12156 16.0775 1.7333 15.6 1.7333C15.1224 1.7333 14.7333 2.12156 14.7333 2.59996C14.7333 3.07835 15.1224 3.46661 15.6 3.46661ZM2.59995 15.5997C3.07748 15.5997 3.46662 15.2115 3.46662 14.7331C3.46662 14.2547 3.07748 13.8664 2.59995 13.8664C2.12242 13.8664 1.73328 14.2547 1.73328 14.7331C1.73328 15.2115 2.12242 15.5997 2.59995 15.5997Z" fill="#00B2FF"/>
<path d="M13.8658 46.9595V34.5066C12.8604 34.1478 12.1333 33.1945 12.1333 32.0661C12.1333 30.6327 13.2998 29.4661 14.7333 29.4661C15.8617 29.4661 16.815 30.1933 17.1738 31.1995H26.1594C26.5182 30.1933 27.4716 29.4661 28.6 29.4661C29.7284 29.4661 30.6817 30.1933 31.0405 31.1995H36.0412L39.2608 27.9798C39.0979 27.641 39 27.2666 39 26.8662C39 25.4327 40.1665 24.2662 41.6 24.2662C43.0334 24.2662 44.2 25.4327 44.2 26.8662C44.2 28.2996 43.0334 29.4661 41.6 29.4661C41.1996 29.4661 40.8252 29.3682 40.4863 29.2053L37.0127 32.6788C36.8506 32.8418 36.6296 32.9328 36.4 32.9328H31.0405C30.6817 33.9389 29.7284 34.6661 28.6 34.6661C27.4716 34.6661 26.5182 33.9389 26.1594 32.9328H17.173C16.9112 33.6668 16.3332 34.2449 15.5991 34.5066V46.9595C16.6053 47.3183 17.3324 48.2716 17.3324 49.4C17.3324 50.8335 16.1659 52 14.7324 52C13.299 52 12.1324 50.8335 12.1324 49.4C12.1324 48.2716 12.8596 47.3183 13.8658 46.9595ZM41.6 27.7328C42.0775 27.7328 42.4666 27.3446 42.4666 26.8662C42.4666 26.3878 42.0775 25.9995 41.6 25.9995C41.1224 25.9995 40.7333 26.3878 40.7333 26.8662C40.7333 27.3446 41.1224 27.7328 41.6 27.7328ZM28.6 32.9328C29.0775 32.9328 29.4666 32.5445 29.4666 32.0661C29.4666 31.5877 29.0775 31.1995 28.6 31.1995C28.1224 31.1995 27.7333 31.5877 27.7333 32.0661C27.7333 32.5445 28.1224 32.9328 28.6 32.9328ZM14.7333 50.2658C15.2108 50.2658 15.6 49.8775 15.6 49.3991C15.6 48.9208 15.2108 48.5325 14.7333 48.5325C14.2558 48.5325 13.8666 48.9208 13.8666 49.3991C13.8666 49.8775 14.2558 50.2658 14.7333 50.2658ZM14.7333 32.9328C15.2108 32.9328 15.6 32.5445 15.6 32.0661C15.6 31.5877 15.2108 31.1995 14.7333 31.1995C14.2558 31.1995 13.8666 31.5877 13.8666 32.0661C13.8666 32.5445 14.2558 32.9328 14.7333 32.9328Z" fill="#00B2FF"/>
<path d="M18.2 17.4925V14.7331C18.2 14.5026 18.291 14.2824 18.4539 14.1204L28.8609 3.7136C28.6979 3.37474 28.6 3.00035 28.6 2.59996C28.6 1.16651 29.7665 0 31.2 0C32.3284 0 33.2817 0.727121 33.6405 1.7333H37.2667C37.7451 1.7333 38.1333 2.1207 38.1333 2.59996V4.84112L41.353 8.06073C41.6919 7.8978 42.0663 7.79987 42.4667 7.79987C43.9001 7.79987 45.0667 8.96638 45.0667 10.3998C45.0667 11.8333 43.9001 12.9998 42.4667 12.9998C41.0332 12.9998 39.8667 11.8333 39.8667 10.3998C39.8667 9.99943 39.9646 9.62504 40.1275 9.28618L36.6539 5.81264C36.491 5.65057 36.4 5.43044 36.4 5.19991V3.46661H33.6405C33.2817 4.47279 32.3284 5.19991 31.2 5.19991C30.7996 5.19991 30.4252 5.10198 30.0863 4.93905L19.9333 15.0919V17.4925C20.9395 17.8513 21.6667 18.8046 21.6667 19.933C21.6667 21.3664 20.5001 22.533 19.0667 22.533C17.6332 22.533 16.4667 21.3664 16.4667 19.933C16.4667 18.8046 17.1938 17.8513 18.2 17.4925ZM42.4667 11.2665C42.9442 11.2665 43.3333 10.8782 43.3333 10.3998C43.3333 9.92143 42.9442 9.53317 42.4667 9.53317C41.9891 9.53317 41.6 9.92143 41.6 10.3998C41.6 10.8782 41.9891 11.2665 42.4667 11.2665ZM31.2 3.46661C31.6775 3.46661 32.0667 3.07835 32.0667 2.59996C32.0667 2.12156 31.6775 1.7333 31.2 1.7333C30.7225 1.7333 30.3333 2.12156 30.3333 2.59996C30.3333 3.07835 30.7225 3.46661 31.2 3.46661ZM19.0667 20.7997C19.5442 20.7997 19.9333 20.4114 19.9333 19.933C19.9333 19.4546 19.5442 19.0663 19.0667 19.0663C18.5891 19.0663 18.2 19.4546 18.2 19.933C18.2 20.4114 18.5891 20.7997 19.0667 20.7997Z" fill="#00B2FF"/>
<path d="M20.8 24.2663C21.9284 24.2663 22.8817 24.9934 23.2405 25.9996H33.4412L38.3873 21.0536C38.5493 20.8906 38.7703 20.7997 39 20.7997H48.1745L50.2667 18.7076V11.6253L43.5803 4.93905C43.2415 5.10198 42.8671 5.19991 42.4667 5.19991C41.0332 5.19991 39.8667 4.0334 39.8667 2.59996C39.8667 1.16651 41.0332 0 42.4667 0C43.9001 0 45.0667 1.16651 45.0667 2.59996C45.0667 3.00035 44.9687 3.37474 44.8058 3.7136L51.7461 10.6538C51.909 10.8158 52 11.0359 52 11.2665V19.0663C52 19.2969 51.909 19.517 51.7461 19.6791L49.1461 22.279C48.984 22.442 48.763 22.533 48.5333 22.533H39.3588L34.4127 27.4789C34.2507 27.6419 34.0297 27.7329 33.8 27.7329H23.2405C22.8817 28.7391 21.9284 29.4662 20.8 29.4662C19.3665 29.4662 18.2 28.2997 18.2 26.8662C18.2 25.4328 19.3665 24.2663 20.8 24.2663ZM42.4667 1.7333C41.9891 1.7333 41.6 2.12156 41.6 2.59996C41.6 3.07835 41.9891 3.46661 42.4667 3.46661C42.9442 3.46661 43.3333 3.07835 43.3333 2.59996C43.3333 2.12156 42.9442 1.7333 42.4667 1.7333ZM20.8 27.7329C21.2775 27.7329 21.6667 27.3446 21.6667 26.8662C21.6667 26.3878 21.2775 25.9996 20.8 25.9996C20.3225 25.9996 19.9333 26.3878 19.9333 26.8662C19.9333 27.3446 20.3225 27.7329 20.8 27.7329Z" fill="#00B2FF"/>
<path d="M2.59997 20.7997C3.00037 20.7997 3.37477 20.8976 3.71363 21.0606L6.9333 17.841V12.8404C5.9271 12.4816 5.19997 11.5283 5.19997 10.3999C5.19997 8.96644 6.3665 7.79993 7.79997 7.79993C9.23343 7.79993 10.4 8.96644 10.4 10.3999C10.4 11.5283 9.67283 12.4816 8.66663 12.8404V18.1998C8.66663 18.4303 8.57563 18.6504 8.4127 18.8125L4.9391 22.286C5.10204 22.6249 5.19997 22.9993 5.19997 23.3997C5.19997 24.528 4.47283 25.4814 3.46663 25.8402V26.5075L10.146 33.1868C10.309 33.3488 10.4 33.569 10.4 33.7995V34.8256C11.4062 35.1844 12.1333 36.1377 12.1333 37.2661C12.1333 38.3945 11.4062 39.3478 10.4 39.7066V41.7597C11.4062 42.1185 12.1333 43.0718 12.1333 44.2002C12.1333 45.6336 10.9668 46.8001 9.5333 46.8001C8.09983 46.8001 6.9333 45.6336 6.9333 44.2002C6.9333 43.0718 7.66043 42.1185 8.66663 41.7597V39.7066C7.66043 39.3478 6.9333 38.3945 6.9333 37.2661C6.9333 36.1377 7.66043 35.1844 8.66663 34.8256V34.1583L1.98723 27.479C1.8243 27.3169 1.7333 27.0968 1.7333 26.8663V25.8402C0.7271 25.4814 -3.24249e-05 24.528 -3.24249e-05 23.3997C-3.24249e-05 21.9662 1.1665 20.7997 2.59997 20.7997ZM7.79997 11.2665C8.2775 11.2665 8.66663 10.8783 8.66663 10.3999C8.66663 9.92149 8.2775 9.53323 7.79997 9.53323C7.32243 9.53323 6.9333 9.92149 6.9333 10.3999C6.9333 10.8783 7.32243 11.2665 7.79997 11.2665ZM9.5333 45.066C10.0108 45.066 10.4 44.6777 10.4 44.1993C10.4 43.7209 10.0108 43.3327 9.5333 43.3327C9.05577 43.3327 8.66663 43.7209 8.66663 44.1993C8.66663 44.6777 9.05577 45.066 9.5333 45.066ZM9.5333 38.1328C10.0108 38.1328 10.4 37.7445 10.4 37.2661C10.4 36.7877 10.0108 36.3995 9.5333 36.3995C9.05577 36.3995 8.66663 36.7877 8.66663 37.2661C8.66663 37.7445 9.05577 38.1328 9.5333 38.1328ZM2.59997 24.2663C3.0775 24.2663 3.46663 23.8781 3.46663 23.3997C3.46663 22.9213 3.0775 22.533 2.59997 22.533C2.12243 22.533 1.7333 22.9213 1.7333 23.3997C1.7333 23.8781 2.12243 24.2663 2.59997 24.2663Z" fill="#00B2FF"/>
</symbol><symbol id="icon-logo" viewBox="0 0 52 52">
<path d="M32.0667 13.8665C33.1951 13.8665 34.1484 14.5936 34.5072 15.5998H43.4928C43.8516 14.5936 44.8049 13.8665 45.9333 13.8665C47.3668 13.8665 48.5333 15.033 48.5333 16.4664C48.5333 17.8999 47.3668 19.0664 45.9333 19.0664C44.8049 19.0664 43.8516 18.3392 43.4928 17.3331H34.5063C34.1475 18.3392 33.1942 19.0664 32.0658 19.0664C30.6323 19.0664 29.4658 17.8999 29.4658 16.4664C29.4658 15.033 30.6332 13.8665 32.0667 13.8665ZM45.9333 17.3331C46.4109 17.3331 46.8 16.9448 46.8 16.4664C46.8 15.988 46.4109 15.5998 45.9333 15.5998C45.4558 15.5998 45.0667 15.988 45.0667 16.4664C45.0667 16.9448 45.4558 17.3331 45.9333 17.3331ZM32.0667 17.3331C32.5442 17.3331 32.9333 16.9448 32.9333 16.4664C32.9333 15.988 32.5442 15.5998 32.0667 15.5998C31.5891 15.5998 31.2 15.988 31.2 16.4664C31.2 16.9448 31.5891 17.3331 32.0667 17.3331Z" fill="#00B2FF"/>
<path d="M25.1334 19.2259V13.8665C25.1334 13.636 25.2244 13.4158 25.3873 13.2538L28.854 9.78716C29.0161 9.62423 29.2371 9.53323 29.4667 9.53323H32.2262C32.585 8.52705 33.5383 7.79993 34.6667 7.79993C36.1002 7.79993 37.2667 8.96644 37.2667 10.3999C37.2667 11.8333 36.1002 12.9998 34.6667 12.9998C33.5383 12.9998 32.585 12.2727 32.2262 11.2665H29.8255L26.8667 14.2253V19.2259C27.8729 19.5847 28.6001 20.538 28.6001 21.6664C28.6001 23.0998 27.4335 24.2663 26.0001 24.2663C24.5666 24.2663 23.4001 23.0998 23.4001 21.6664C23.4001 20.538 24.1272 19.5847 25.1334 19.2259ZM34.6667 11.2665C35.1443 11.2665 35.5334 10.8783 35.5334 10.3999C35.5334 9.92149 35.1443 9.53323 34.6667 9.53323C34.1892 9.53323 33.8001 9.92149 33.8001 10.3999C33.8001 10.8783 34.1892 11.2665 34.6667 11.2665ZM26.0001 22.533C26.4776 22.533 26.8667 22.1448 26.8667 21.6664C26.8667 21.188 26.4776 20.7997 26.0001 20.7997C25.5225 20.7997 25.1334 21.188 25.1334 21.6664C25.1334 22.1448 25.5225 22.533 26.0001 22.533Z" fill="#00B2FF"/>
<path d="M9.53333 22.533C9.93373 22.533 10.3081 22.6309 10.647 22.7938L12.1333 21.3075V12.9998C12.1333 12.7693 12.2243 12.5491 12.3873 12.3871L21.0609 3.7136C20.8979 3.37474 20.8 3.00035 20.8 2.59996C20.8 1.16651 21.9665 0 23.4 0C24.8335 0 26 1.16651 26 2.59996C26 4.0334 24.8335 5.19991 23.4 5.19991C22.9996 5.19991 22.6252 5.10198 22.2863 4.93905L13.8667 13.3586V21.6663C13.8667 21.8968 13.7757 22.117 13.6127 22.279L11.8725 24.0193C12.0354 24.3581 12.1333 24.7325 12.1333 25.1329C12.1333 26.5664 10.9668 27.7329 9.53333 27.7329C8.09986 27.7329 6.93333 26.5664 6.93333 25.1329C6.93333 23.6995 8.09986 22.533 9.53333 22.533ZM23.4 3.46661C23.8775 3.46661 24.2667 3.07835 24.2667 2.59996C24.2667 2.12156 23.8775 1.7333 23.4 1.7333C22.9225 1.7333 22.5333 2.12156 22.5333 2.59996C22.5333 3.07835 22.9225 3.46661 23.4 3.46661ZM9.53333 25.9996C10.0109 25.9996 10.4 25.6113 10.4 25.1329C10.4 24.6545 10.0109 24.2663 9.53333 24.2663C9.0558 24.2663 8.66667 24.6545 8.66667 25.1329C8.66667 25.6113 9.0558 25.9996 9.53333 25.9996Z" fill="#00B2FF"/>
<path d="M1.73328 12.2926V8.66652C1.73328 8.43599 1.82428 8.21586 1.98722 8.0538L8.05388 1.98723C8.21595 1.8243 8.43695 1.7333 8.66662 1.7333H13.1594C13.5182 0.727121 14.4716 0 15.6 0C17.0334 0 18.2 1.16651 18.2 2.59996C18.2 4.0334 17.0334 5.19991 15.6 5.19991C14.4716 5.19991 13.5182 4.47279 13.1594 3.46661H9.02542L3.46662 9.02532V12.2926C4.47282 12.6514 5.19995 13.6047 5.19995 14.7331C5.19995 16.1665 4.03342 17.333 2.59995 17.333C1.16648 17.333 -4.95911e-05 16.1665 -4.95911e-05 14.7331C-4.95911e-05 13.6047 0.727085 12.6514 1.73328 12.2926ZM15.6 3.46661C16.0775 3.46661 16.4666 3.07835 16.4666 2.59996C16.4666 2.12156 16.0775 1.7333 15.6 1.7333C15.1224 1.7333 14.7333 2.12156 14.7333 2.59996C14.7333 3.07835 15.1224 3.46661 15.6 3.46661ZM2.59995 15.5997C3.07748 15.5997 3.46662 15.2115 3.46662 14.7331C3.46662 14.2547 3.07748 13.8664 2.59995 13.8664C2.12242 13.8664 1.73328 14.2547 1.73328 14.7331C1.73328 15.2115 2.12242 15.5997 2.59995 15.5997Z" fill="#00B2FF"/>
<path d="M13.8658 46.9595V34.5066C12.8604 34.1478 12.1333 33.1945 12.1333 32.0661C12.1333 30.6327 13.2998 29.4661 14.7333 29.4661C15.8617 29.4661 16.815 30.1933 17.1738 31.1995H26.1594C26.5182 30.1933 27.4716 29.4661 28.6 29.4661C29.7284 29.4661 30.6817 30.1933 31.0405 31.1995H36.0412L39.2608 27.9798C39.0979 27.641 39 27.2666 39 26.8662C39 25.4327 40.1665 24.2662 41.6 24.2662C43.0334 24.2662 44.2 25.4327 44.2 26.8662C44.2 28.2996 43.0334 29.4661 41.6 29.4661C41.1996 29.4661 40.8252 29.3682 40.4863 29.2053L37.0127 32.6788C36.8506 32.8418 36.6296 32.9328 36.4 32.9328H31.0405C30.6817 33.9389 29.7284 34.6661 28.6 34.6661C27.4716 34.6661 26.5182 33.9389 26.1594 32.9328H17.173C16.9112 33.6668 16.3332 34.2449 15.5991 34.5066V46.9595C16.6053 47.3183 17.3324 48.2716 17.3324 49.4C17.3324 50.8335 16.1659 52 14.7324 52C13.299 52 12.1324 50.8335 12.1324 49.4C12.1324 48.2716 12.8596 47.3183 13.8658 46.9595ZM41.6 27.7328C42.0775 27.7328 42.4666 27.3446 42.4666 26.8662C42.4666 26.3878 42.0775 25.9995 41.6 25.9995C41.1224 25.9995 40.7333 26.3878 40.7333 26.8662C40.7333 27.3446 41.1224 27.7328 41.6 27.7328ZM28.6 32.9328C29.0775 32.9328 29.4666 32.5445 29.4666 32.0661C29.4666 31.5877 29.0775 31.1995 28.6 31.1995C28.1224 31.1995 27.7333 31.5877 27.7333 32.0661C27.7333 32.5445 28.1224 32.9328 28.6 32.9328ZM14.7333 50.2658C15.2108 50.2658 15.6 49.8775 15.6 49.3991C15.6 48.9208 15.2108 48.5325 14.7333 48.5325C14.2558 48.5325 13.8666 48.9208 13.8666 49.3991C13.8666 49.8775 14.2558 50.2658 14.7333 50.2658ZM14.7333 32.9328C15.2108 32.9328 15.6 32.5445 15.6 32.0661C15.6 31.5877 15.2108 31.1995 14.7333 31.1995C14.2558 31.1995 13.8666 31.5877 13.8666 32.0661C13.8666 32.5445 14.2558 32.9328 14.7333 32.9328Z" fill="#00B2FF"/>
<path d="M18.2 17.4925V14.7331C18.2 14.5026 18.291 14.2824 18.4539 14.1204L28.8609 3.7136C28.6979 3.37474 28.6 3.00035 28.6 2.59996C28.6 1.16651 29.7665 0 31.2 0C32.3284 0 33.2817 0.727121 33.6405 1.7333H37.2667C37.7451 1.7333 38.1333 2.1207 38.1333 2.59996V4.84112L41.353 8.06073C41.6919 7.8978 42.0663 7.79987 42.4667 7.79987C43.9001 7.79987 45.0667 8.96638 45.0667 10.3998C45.0667 11.8333 43.9001 12.9998 42.4667 12.9998C41.0332 12.9998 39.8667 11.8333 39.8667 10.3998C39.8667 9.99943 39.9646 9.62504 40.1275 9.28618L36.6539 5.81264C36.491 5.65057 36.4 5.43044 36.4 5.19991V3.46661H33.6405C33.2817 4.47279 32.3284 5.19991 31.2 5.19991C30.7996 5.19991 30.4252 5.10198 30.0863 4.93905L19.9333 15.0919V17.4925C20.9395 17.8513 21.6667 18.8046 21.6667 19.933C21.6667 21.3664 20.5001 22.533 19.0667 22.533C17.6332 22.533 16.4667 21.3664 16.4667 19.933C16.4667 18.8046 17.1938 17.8513 18.2 17.4925ZM42.4667 11.2665C42.9442 11.2665 43.3333 10.8782 43.3333 10.3998C43.3333 9.92143 42.9442 9.53317 42.4667 9.53317C41.9891 9.53317 41.6 9.92143 41.6 10.3998C41.6 10.8782 41.9891 11.2665 42.4667 11.2665ZM31.2 3.46661C31.6775 3.46661 32.0667 3.07835 32.0667 2.59996C32.0667 2.12156 31.6775 1.7333 31.2 1.7333C30.7225 1.7333 30.3333 2.12156 30.3333 2.59996C30.3333 3.07835 30.7225 3.46661 31.2 3.46661ZM19.0667 20.7997C19.5442 20.7997 19.9333 20.4114 19.9333 19.933C19.9333 19.4546 19.5442 19.0663 19.0667 19.0663C18.5891 19.0663 18.2 19.4546 18.2 19.933C18.2 20.4114 18.5891 20.7997 19.0667 20.7997Z" fill="#00B2FF"/>
<path d="M20.8 24.2663C21.9284 24.2663 22.8817 24.9934 23.2405 25.9996H33.4412L38.3873 21.0536C38.5493 20.8906 38.7703 20.7997 39 20.7997H48.1745L50.2667 18.7076V11.6253L43.5803 4.93905C43.2415 5.10198 42.8671 5.19991 42.4667 5.19991C41.0332 5.19991 39.8667 4.0334 39.8667 2.59996C39.8667 1.16651 41.0332 0 42.4667 0C43.9001 0 45.0667 1.16651 45.0667 2.59996C45.0667 3.00035 44.9687 3.37474 44.8058 3.7136L51.7461 10.6538C51.909 10.8158 52 11.0359 52 11.2665V19.0663C52 19.2969 51.909 19.517 51.7461 19.6791L49.1461 22.279C48.984 22.442 48.763 22.533 48.5333 22.533H39.3588L34.4127 27.4789C34.2507 27.6419 34.0297 27.7329 33.8 27.7329H23.2405C22.8817 28.7391 21.9284 29.4662 20.8 29.4662C19.3665 29.4662 18.2 28.2997 18.2 26.8662C18.2 25.4328 19.3665 24.2663 20.8 24.2663ZM42.4667 1.7333C41.9891 1.7333 41.6 2.12156 41.6 2.59996C41.6 3.07835 41.9891 3.46661 42.4667 3.46661C42.9442 3.46661 43.3333 3.07835 43.3333 2.59996C43.3333 2.12156 42.9442 1.7333 42.4667 1.7333ZM20.8 27.7329C21.2775 27.7329 21.6667 27.3446 21.6667 26.8662C21.6667 26.3878 21.2775 25.9996 20.8 25.9996C20.3225 25.9996 19.9333 26.3878 19.9333 26.8662C19.9333 27.3446 20.3225 27.7329 20.8 27.7329Z" fill="#00B2FF"/>
<path d="M2.59997 20.7997C3.00037 20.7997 3.37477 20.8976 3.71363 21.0606L6.9333 17.841V12.8404C5.9271 12.4816 5.19997 11.5283 5.19997 10.3999C5.19997 8.96644 6.3665 7.79993 7.79997 7.79993C9.23343 7.79993 10.4 8.96644 10.4 10.3999C10.4 11.5283 9.67283 12.4816 8.66663 12.8404V18.1998C8.66663 18.4303 8.57563 18.6504 8.4127 18.8125L4.9391 22.286C5.10204 22.6249 5.19997 22.9993 5.19997 23.3997C5.19997 24.528 4.47283 25.4814 3.46663 25.8402V26.5075L10.146 33.1868C10.309 33.3488 10.4 33.569 10.4 33.7995V34.8256C11.4062 35.1844 12.1333 36.1377 12.1333 37.2661C12.1333 38.3945 11.4062 39.3478 10.4 39.7066V41.7597C11.4062 42.1185 12.1333 43.0718 12.1333 44.2002C12.1333 45.6336 10.9668 46.8001 9.5333 46.8001C8.09983 46.8001 6.9333 45.6336 6.9333 44.2002C6.9333 43.0718 7.66043 42.1185 8.66663 41.7597V39.7066C7.66043 39.3478 6.9333 38.3945 6.9333 37.2661C6.9333 36.1377 7.66043 35.1844 8.66663 34.8256V34.1583L1.98723 27.479C1.8243 27.3169 1.7333 27.0968 1.7333 26.8663V25.8402C0.7271 25.4814 -3.24249e-05 24.528 -3.24249e-05 23.3997C-3.24249e-05 21.9662 1.1665 20.7997 2.59997 20.7997ZM7.79997 11.2665C8.2775 11.2665 8.66663 10.8783 8.66663 10.3999C8.66663 9.92149 8.2775 9.53323 7.79997 9.53323C7.32243 9.53323 6.9333 9.92149 6.9333 10.3999C6.9333 10.8783 7.32243 11.2665 7.79997 11.2665ZM9.5333 45.066C10.0108 45.066 10.4 44.6777 10.4 44.1993C10.4 43.7209 10.0108 43.3327 9.5333 43.3327C9.05577 43.3327 8.66663 43.7209 8.66663 44.1993C8.66663 44.6777 9.05577 45.066 9.5333 45.066ZM9.5333 38.1328C10.0108 38.1328 10.4 37.7445 10.4 37.2661C10.4 36.7877 10.0108 36.3995 9.5333 36.3995C9.05577 36.3995 8.66663 36.7877 8.66663 37.2661C8.66663 37.7445 9.05577 38.1328 9.5333 38.1328ZM2.59997 24.2663C3.0775 24.2663 3.46663 23.8781 3.46663 23.3997C3.46663 22.9213 3.0775 22.533 2.59997 22.533C2.12243 22.533 1.7333 22.9213 1.7333 23.3997C1.7333 23.8781 2.12243 24.2663 2.59997 24.2663Z" fill="#00B2FF"/>
</symbol><symbol id="icon-ok" viewBox="0 0 27 27">
<path d="M13.6539 11.2351C14.6953 11.2351 15.5053 10.3782 15.4861 9.44507C15.5053 8.51196 14.7146 7.63599 13.6732 7.63599C12.6703 7.63599 11.8411 8.43579 11.8411 9.42602C11.8411 10.4163 12.6511 11.2351 13.6539 11.2351Z" fill="var(--hover, #CDCDCD)"/>
<path d="M13.5 0C6.0557 0 0 5.97949 0 13.3301C0 20.6997 6.0557 26.6601 13.5 26.6601C20.9635 26.6601 27 20.6807 27 13.3301C27.0192 5.97949 20.9635 0 13.5 0ZM13.6928 5.04639C16.1228 5.04639 18.1285 7.02685 18.1093 9.44531C18.1093 11.8828 16.0843 13.8442 13.6157 13.8061C11.1857 13.7681 9.23784 11.8066 9.23784 9.42627C9.23784 7.00781 11.2243 5.04639 13.6928 5.04639ZM18.6493 15.3296C18.6493 15.3677 18.63 15.3867 18.63 15.4248C18.5721 15.8057 18.3793 16.1103 18.0514 16.3198C17.8393 16.4531 17.6078 16.5864 17.3764 16.7007C16.7978 16.9863 16.1807 17.2148 15.5443 17.3672C15.4671 17.3862 15.4671 17.3862 15.525 17.4434C15.8721 17.7861 16.2385 18.1479 16.5857 18.4907C17.0293 18.9287 17.4921 19.3857 17.9357 19.8237C18.5721 20.4521 18.3985 21.4995 17.5885 21.8804C17.4535 21.9565 17.2993 21.9756 17.145 22.0137C17.0678 22.0137 16.9714 22.0137 16.8943 22.0137C16.875 22.0137 16.8557 22.0137 16.8557 21.9946C16.5471 21.9565 16.2964 21.8042 16.065 21.5947C15.2935 20.833 14.5028 20.0522 13.7314 19.2905C13.6735 19.2334 13.6735 19.2334 13.6157 19.2905C12.825 20.0713 12.0536 20.833 11.2628 21.6138C11.1278 21.7471 10.9928 21.8423 10.8193 21.9185C10.7036 21.9756 10.5686 21.9946 10.4528 22.0137C10.3757 22.0137 10.2986 22.0137 10.2021 22.0137C10.1636 22.0137 10.1443 21.9946 10.1057 21.9946C9.58498 21.8994 9.23784 21.6138 9.08356 21.1186C8.92927 20.6235 9.04498 20.1855 9.41141 19.8237C9.73927 19.5 10.0478 19.1953 10.3757 18.8716C10.8578 18.3955 11.34 17.9194 11.8028 17.4624C11.8607 17.4053 11.8607 17.4053 11.7836 17.3862C11.7643 17.3862 11.7257 17.3672 11.7064 17.3672C10.8386 17.1577 10.0478 16.8149 9.2957 16.3579C8.85213 16.0723 8.63998 15.6533 8.69784 15.1392C8.79427 14.187 9.87427 13.6728 10.6843 14.187C10.8386 14.2822 10.9736 14.3584 11.1471 14.4346C12.0343 14.8726 12.9793 15.063 13.9628 15.0059C14.445 14.9868 14.9271 14.8916 15.4093 14.7393C15.8721 14.5869 16.2771 14.3774 16.7014 14.1489C17.3957 13.749 18.3021 14.0728 18.5721 14.8154C18.6107 14.9297 18.63 15.0249 18.6493 15.1392C18.6493 15.1963 18.6493 15.2534 18.6493 15.3296Z" fill="var(--hover, #CDCDCD)"/>
</symbol><symbol id="icon-phone" viewBox="0 0 18 18">
<path d="M14.2333 11.1503C13.8642 10.7666 13.4191 10.5615 12.9473 10.5615C12.4794 10.5615 12.0304 10.7628 11.6462 11.1465L10.4439 12.3432C10.345 12.2901 10.2461 12.2407 10.151 12.1913C10.014 12.1229 9.88467 12.0583 9.77433 11.9899C8.64819 11.2757 7.62476 10.3449 6.64319 9.14066C6.16762 8.54041 5.84804 8.03514 5.61596 7.52227C5.92793 7.23735 6.21708 6.94102 6.49861 6.6561C6.60514 6.54972 6.71167 6.43955 6.8182 6.33318C7.61715 5.53538 7.61715 4.50205 6.8182 3.70425L5.77955 2.66712C5.66161 2.54935 5.53987 2.42778 5.42573 2.30621C5.19746 2.07067 4.95777 1.82754 4.71047 1.59959C4.34143 1.23489 3.9001 1.04114 3.43595 1.04114C2.97179 1.04114 2.52286 1.23489 2.1424 1.59959C2.1386 1.60339 2.1386 1.60339 2.13479 1.60719L0.841243 2.91026C0.35426 3.39653 0.076528 3.98918 0.0156552 4.6768C-0.0756541 5.78612 0.251537 6.81945 0.502638 7.49568C1.11898 9.15586 2.03968 10.6945 3.41312 12.3432C5.07952 14.3301 7.08452 15.8991 9.37486 17.0046C10.2499 17.4187 11.4179 17.9088 12.7229 17.9924C12.8028 17.9962 12.8865 18 12.9626 18C13.8414 18 14.5795 17.6847 15.1578 17.0578C15.1616 17.0502 15.1692 17.0464 15.173 17.0388C15.3708 16.7995 15.5991 16.5829 15.8388 16.3512C16.0024 16.1954 16.1698 16.0321 16.3334 15.8611C16.71 15.4698 16.9079 15.014 16.9079 14.5467C16.9079 14.0756 16.7062 13.6235 16.322 13.2436L14.2333 11.1503ZM15.5953 15.1507C15.5915 15.1507 15.5915 15.1545 15.5953 15.1507C15.4469 15.3103 15.2947 15.4546 15.1311 15.6142C14.8838 15.8497 14.6327 16.0967 14.3969 16.374C14.0126 16.7843 13.5599 16.978 12.9664 16.978C12.9093 16.978 12.8484 16.978 12.7913 16.9742C11.6614 16.9021 10.6113 16.4614 9.82379 16.0853C7.67042 15.0443 5.77955 13.5665 4.20827 11.6936C2.91092 10.1322 2.04348 8.68857 1.46899 7.13857C1.11517 6.19262 0.985816 5.4556 1.04288 4.76038C1.08093 4.3159 1.25214 3.94739 1.56791 3.63207L2.86527 2.33661C3.05169 2.16185 3.24953 2.06687 3.44356 2.06687C3.68324 2.06687 3.87728 2.21124 3.99902 2.33281C4.00283 2.33661 4.00663 2.3404 4.01044 2.3442C4.24251 2.56075 4.46318 2.78489 4.69526 3.02423C4.8132 3.1458 4.93494 3.26737 5.05669 3.39273L6.09533 4.42987C6.49861 4.83256 6.49861 5.20487 6.09533 5.60757C5.985 5.71774 5.87847 5.82791 5.76814 5.93428C5.44856 6.261 5.14419 6.56492 4.8132 6.86124C4.80559 6.86884 4.79798 6.87264 4.79417 6.88024C4.46698 7.20695 4.52786 7.52607 4.59634 7.74262C4.60014 7.75401 4.60395 7.76541 4.60775 7.77681C4.87787 8.43024 5.25833 9.04568 5.83662 9.7789L5.84043 9.78269C6.89048 11.0744 7.99761 12.0811 9.21887 12.8523C9.37486 12.9511 9.53465 13.0309 9.68683 13.1068C9.82379 13.1752 9.95315 13.2398 10.0635 13.3082C10.0787 13.3158 10.0939 13.3272 10.1091 13.3348C10.2385 13.3994 10.3602 13.4298 10.4858 13.4298C10.8016 13.4298 10.9994 13.2322 11.0641 13.1676L12.3652 11.8684C12.4946 11.7392 12.7 11.5834 12.9397 11.5834C13.1756 11.5834 13.3696 11.7316 13.4876 11.8608C13.4914 11.8646 13.4914 11.8646 13.4952 11.8684L15.5915 13.9616C15.9834 14.3491 15.9834 14.748 15.5953 15.1507Z" fill="var(--hover, #00B2FF)"/>
<path d="M9.72868 4.28169C10.7255 4.44885 11.631 4.91992 12.3538 5.64174C13.0767 6.36355 13.5446 7.26772 13.7158 8.26307C13.7577 8.5138 13.9746 8.68856 14.2219 8.68856C14.2523 8.68856 14.2789 8.68476 14.3094 8.68096C14.5909 8.63537 14.7773 8.36944 14.7317 8.08831C14.5262 6.88402 13.9555 5.7861 13.0843 4.91613C12.2131 4.04615 11.1135 3.4763 9.90749 3.27115C9.62596 3.22556 9.36344 3.41171 9.31398 3.68904C9.26452 3.96637 9.44714 4.2361 9.72868 4.28169Z" fill="var(--hover, #00B2FF)"/>
<path d="M17.9921 7.94018C17.6535 5.95709 16.7176 4.15255 15.2795 2.71652C13.8414 1.28049 12.0342 0.345932 10.0482 0.00781895C9.77051 -0.0415684 9.50799 0.148383 9.45853 0.425712C9.41288 0.70684 9.5993 0.968972 9.88084 1.01836C11.6538 1.31848 13.2707 2.15807 14.5566 3.43834C15.8426 4.72241 16.6796 6.33699 16.9801 8.10734C17.022 8.35808 17.2388 8.53283 17.4861 8.53283C17.5166 8.53283 17.5432 8.52903 17.5736 8.52523C17.8514 8.48344 18.0416 8.21751 17.9921 7.94018Z" fill="var(--hover, #00B2FF)"/>
</symbol><symbol id="icon-slogan-header-logo" viewBox="0 0 134 43">
<path d="M2.94727 36.9609L4.23633 32.6602H5.75391L3.23438 39.9609C2.84766 41.0273 2.19141 41.5605 1.26562 41.5605C1.05859 41.5605 0.830078 41.5254 0.580078 41.4551V40.3535L0.849609 40.3711C1.20898 40.3711 1.47852 40.3047 1.6582 40.1719C1.8418 40.043 1.98633 39.8242 2.0918 39.5156L2.29688 38.9707L0.0703125 32.6602H1.60547L2.94727 36.9609ZM10.3418 37.248L12.2168 32.6602H13.998V39H12.5742V34.8047L10.8281 39H9.86133L8.10938 34.7812V39H6.68555V32.6602H8.47852L10.3418 37.248ZM20.9707 39H19.5469V36.4395H17.0801V39H15.6562V32.6602H17.0801V35.3027H19.5469V32.6602H20.9707V39ZM24.0234 34.6758H25.418C25.9375 34.6758 26.3906 34.7656 26.7773 34.9453C27.1641 35.125 27.457 35.377 27.6562 35.7012C27.8594 36.0254 27.9609 36.4023 27.9609 36.832C27.9609 37.4844 27.7305 38.0078 27.2695 38.4023C26.8086 38.7969 26.1953 38.9961 25.4297 39H22.5996V32.6602H24.0234V34.6758ZM30.4395 39H29.0156V32.6602H30.4395V39ZM24.0234 35.8184V37.8633H25.4121C25.7598 37.8633 26.0332 37.7773 26.2324 37.6055C26.4355 37.4297 26.5371 37.1816 26.5371 36.8613C26.5371 36.541 26.4375 36.2891 26.2383 36.1055C26.043 35.918 25.7773 35.8223 25.4414 35.8184H24.0234ZM34.9395 39.1172C34.0371 39.1172 33.3047 38.834 32.7422 38.2676C32.1836 37.6973 31.9043 36.9395 31.9043 35.9941V35.8184C31.9043 35.1855 32.0254 34.6211 32.2676 34.125C32.5137 33.625 32.8574 33.2363 33.2988 32.959C33.7402 32.6816 34.2324 32.543 34.7754 32.543C35.6387 32.543 36.3047 32.8184 36.7734 33.3691C37.2461 33.9199 37.4824 34.6992 37.4824 35.707V36.2812H33.3398C33.3828 36.8047 33.5566 37.2188 33.8613 37.5234C34.1699 37.8281 34.5566 37.9805 35.0215 37.9805C35.6738 37.9805 36.2051 37.7168 36.6152 37.1895L37.3828 37.9219C37.1289 38.3008 36.7891 38.5957 36.3633 38.8066C35.9414 39.0137 35.4668 39.1172 34.9395 39.1172ZM34.7695 33.6855C34.3789 33.6855 34.0625 33.8223 33.8203 34.0957C33.582 34.3691 33.4297 34.75 33.3633 35.2383H36.0762V35.1328C36.0449 34.6562 35.918 34.2969 35.6953 34.0547C35.4727 33.8086 35.1641 33.6855 34.7695 33.6855ZM46.5703 33.791H44.5137V39H43.0898V33.791H41.0566V32.6602H46.5703V33.791ZM49.9395 39.1172C49.0371 39.1172 48.3047 38.834 47.7422 38.2676C47.1836 37.6973 46.9043 36.9395 46.9043 35.9941V35.8184C46.9043 35.1855 47.0254 34.6211 47.2676 34.125C47.5137 33.625 47.8574 33.2363 48.2988 32.959C48.7402 32.6816 49.2324 32.543 49.7754 32.543C50.6387 32.543 51.3047 32.8184 51.7734 33.3691C52.2461 33.9199 52.4824 34.6992 52.4824 35.707V36.2812H48.3398C48.3828 36.8047 48.5566 37.2188 48.8613 37.5234C49.1699 37.8281 49.5566 37.9805 50.0215 37.9805C50.6738 37.9805 51.2051 37.7168 51.6152 37.1895L52.3828 37.9219C52.1289 38.3008 51.7891 38.5957 51.3633 38.8066C50.9414 39.0137 50.4668 39.1172 49.9395 39.1172ZM49.7695 33.6855C49.3789 33.6855 49.0625 33.8223 48.8203 34.0957C48.582 34.3691 48.4297 34.75 48.3633 35.2383H51.0762V35.1328C51.0449 34.6562 50.918 34.2969 50.6953 34.0547C50.4727 33.8086 50.1641 33.6855 49.7695 33.6855ZM55.8691 34.7461L57.0762 32.6602H58.6582L56.7188 35.7832L58.7227 39H57.1523L55.8867 36.832L54.627 39H53.0449L55.0488 35.7832L53.1152 32.6602H54.6855L55.8691 34.7461ZM64.998 39H63.5742V36.4395H61.1074V39H59.6836V32.6602H61.1074V35.3027H63.5742V32.6602H64.998V39ZM66.252 35.7715C66.252 35.1504 66.375 34.5918 66.6211 34.0957C66.8672 33.5957 67.2129 33.2129 67.6582 32.9473C68.1035 32.6777 68.6152 32.543 69.1934 32.543C70.0488 32.543 70.7422 32.8184 71.2734 33.3691C71.8086 33.9199 72.0977 34.6504 72.1406 35.5605L72.1465 35.8945C72.1465 36.5195 72.0254 37.0781 71.7832 37.5703C71.5449 38.0625 71.2012 38.4434 70.752 38.7129C70.3066 38.9824 69.791 39.1172 69.2051 39.1172C68.3105 39.1172 67.5938 38.8203 67.0547 38.2266C66.5195 37.6289 66.252 36.834 66.252 35.8418V35.7715ZM67.6758 35.8945C67.6758 36.5469 67.8105 37.0586 68.0801 37.4297C68.3496 37.7969 68.7246 37.9805 69.2051 37.9805C69.6855 37.9805 70.0586 37.793 70.3242 37.418C70.5938 37.043 70.7285 36.4941 70.7285 35.7715C70.7285 35.1309 70.5898 34.623 70.3125 34.248C70.0391 33.873 69.666 33.6855 69.1934 33.6855C68.7285 33.6855 68.3594 33.8711 68.0859 34.2422C67.8125 34.6094 67.6758 35.1602 67.6758 35.8945ZM78.6445 32.6602V39H77.2207V33.8086H75.4277L75.3105 36.0176C75.2363 37.0801 75.0312 37.8438 74.6953 38.3086C74.3633 38.7695 73.8535 39 73.166 39H72.7266L72.7207 37.8164L73.0137 37.7871C73.3262 37.7441 73.5527 37.5547 73.6934 37.2188C73.8379 36.8789 73.9297 36.2617 73.9688 35.3672L74.0859 32.6602H78.6445ZM79.8926 35.7715C79.8926 35.1504 80.0156 34.5918 80.2617 34.0957C80.5078 33.5957 80.8535 33.2129 81.2988 32.9473C81.7441 32.6777 82.2559 32.543 82.834 32.543C83.6895 32.543 84.3828 32.8184 84.9141 33.3691C85.4492 33.9199 85.7383 34.6504 85.7812 35.5605L85.7871 35.8945C85.7871 36.5195 85.666 37.0781 85.4238 37.5703C85.1855 38.0625 84.8418 38.4434 84.3926 38.7129C83.9473 38.9824 83.4316 39.1172 82.8457 39.1172C81.9512 39.1172 81.2344 38.8203 80.6953 38.2266C80.1602 37.6289 79.8926 36.834 79.8926 35.8418V35.7715ZM81.3164 35.8945C81.3164 36.5469 81.4512 37.0586 81.7207 37.4297C81.9902 37.7969 82.3652 37.9805 82.8457 37.9805C83.3262 37.9805 83.6992 37.793 83.9648 37.418C84.2344 37.043 84.3691 36.4941 84.3691 35.7715C84.3691 35.1309 84.2305 34.623 83.9531 34.248C83.6797 33.873 83.3066 33.6855 82.834 33.6855C82.3691 33.6855 82 33.8711 81.7266 34.2422C81.4531 34.6094 81.3164 35.1602 81.3164 35.8945ZM91.2129 33.8086H88.459V39H87.041V32.6602H91.2129V33.8086ZM95.9766 32.6602H97.3945V39H95.9766V34.7695L93.4922 39H92.0742V32.6602H93.4922V36.8906L95.9766 32.6602ZM102.867 32.6602H104.285V39H102.867V34.7695L100.383 39H98.9648V32.6602H100.383V36.8906L102.867 32.6602Z" fill="#788891"/>
<path d="M8.93555 16.3369C8.93555 15.6126 8.74837 15.0674 8.37402 14.7012C8.00781 14.3268 7.33643 13.9403 6.35986 13.5415C4.57764 12.866 3.2959 12.0767 2.51465 11.1733C1.7334 10.2619 1.34277 9.18766 1.34277 7.95068C1.34277 6.45329 1.87174 5.25293 2.92969 4.34961C3.99577 3.43815 5.34668 2.98242 6.98242 2.98242C8.07292 2.98242 9.04541 3.21436 9.8999 3.67822C10.7544 4.13395 11.4095 4.78092 11.8652 5.61914C12.3291 6.45736 12.561 7.40951 12.561 8.47559H8.98438C8.98438 7.64551 8.80534 7.01481 8.44727 6.5835C8.09733 6.14404 7.5887 5.92432 6.92139 5.92432C6.29476 5.92432 5.80648 6.11149 5.45654 6.48584C5.10661 6.85205 4.93164 7.34847 4.93164 7.9751C4.93164 8.46338 5.12695 8.9069 5.51758 9.30566C5.9082 9.69629 6.59993 10.1032 7.59277 10.5264C9.32617 11.153 10.5835 11.922 11.3647 12.8335C12.1541 13.745 12.5488 14.9046 12.5488 16.3125C12.5488 17.8587 12.0565 19.0672 11.0718 19.938C10.0871 20.8088 8.74837 21.2441 7.05566 21.2441C5.9082 21.2441 4.86247 21.0081 3.91846 20.5361C2.97445 20.0641 2.23389 19.3887 1.69678 18.5098C1.16781 17.6309 0.90332 16.5933 0.90332 15.397H4.50439C4.50439 16.4224 4.70378 17.167 5.10254 17.6309C5.5013 18.0947 6.15234 18.3267 7.05566 18.3267C8.30892 18.3267 8.93555 17.6634 8.93555 16.3369ZM18.0054 7.79199L18.103 9.0127C18.8761 8.03613 19.8975 7.54785 21.167 7.54785C22.4854 7.54785 23.4172 8.14193 23.9624 9.33008C24.7192 8.14193 25.7975 7.54785 27.1973 7.54785C29.5085 7.54785 30.6925 9.14697 30.7495 12.3452V21H27.2949V12.5649C27.2949 11.8 27.1891 11.2547 26.9775 10.9292C26.766 10.6037 26.4079 10.4409 25.9033 10.4409C25.2604 10.4409 24.7803 10.8356 24.4629 11.625L24.4873 12.04V21H21.0327V12.5894C21.0327 11.8325 20.931 11.2873 20.7275 10.9536C20.5241 10.6118 20.1619 10.4409 19.6411 10.4409C19.047 10.4409 18.575 10.7624 18.2251 11.4053V21H14.7705V7.79199H18.0054ZM39.5874 21C39.4897 20.7965 39.3921 20.4548 39.2944 19.9746C38.6759 20.821 37.8377 21.2441 36.7798 21.2441C35.673 21.2441 34.7534 20.8779 34.021 20.1455C33.2967 19.4131 32.9346 18.465 32.9346 17.3013C32.9346 15.9178 33.374 14.8477 34.2529 14.0908C35.14 13.334 36.4136 12.9474 38.0737 12.9312H39.1235V11.8691C39.1235 11.2751 39.0218 10.856 38.8184 10.6118C38.6149 10.3677 38.3179 10.2456 37.9272 10.2456C37.0646 10.2456 36.6333 10.7502 36.6333 11.7593H33.1787C33.1787 10.5386 33.6344 9.53353 34.5459 8.74414C35.4655 7.94661 36.6252 7.54785 38.0249 7.54785C39.4735 7.54785 40.5924 7.92627 41.3818 8.68311C42.1794 9.4318 42.5781 10.506 42.5781 11.9058V18.1191C42.5944 19.2585 42.7572 20.1496 43.0664 20.7925V21H39.5874ZM37.5488 18.5342C37.9313 18.5342 38.2568 18.4569 38.5254 18.3022C38.7939 18.1476 38.9933 17.9645 39.1235 17.7529V15.0063H38.2935C37.7075 15.0063 37.2437 15.1935 36.9019 15.5679C36.5682 15.9422 36.4014 16.4427 36.4014 17.0693C36.4014 18.0459 36.7839 18.5342 37.5488 18.5342ZM51.5991 11.1245L50.4517 11.0269C49.5076 11.0269 48.8688 11.4419 48.5352 12.272V21H45.0684V7.79199H48.3276L48.4253 9.22021C48.9705 8.10531 49.7233 7.54785 50.6836 7.54785C51.0742 7.54785 51.3916 7.60075 51.6357 7.70654L51.5991 11.1245ZM58.0078 4.54492V7.79199H59.7778V10.3921H58.0078V16.9473C58.0078 17.4681 58.077 17.8262 58.2153 18.0215C58.3618 18.2168 58.6385 18.3145 59.0454 18.3145C59.3791 18.3145 59.6517 18.286 59.8633 18.229L59.8389 20.9146C59.2529 21.1343 58.6182 21.2441 57.9346 21.2441C55.7048 21.2441 54.5776 19.9665 54.5532 17.4111V10.3921H53.0273V7.79199H54.5532V4.54492H58.0078ZM67.6147 21V3.22656H72.3145C74.3896 3.22656 76.0417 3.88574 77.2705 5.2041C78.5075 6.52246 79.1382 8.3291 79.1626 10.624V13.5049C79.1626 15.8405 78.5441 17.6756 77.3071 19.0103C76.0783 20.3368 74.3815 21 72.2168 21H67.6147ZM71.2036 6.21729V18.0215H72.2778C73.4741 18.0215 74.3164 17.7082 74.8047 17.0815C75.293 16.4468 75.5493 15.3563 75.5737 13.8101V10.7217C75.5737 9.06152 75.3418 7.90592 74.8779 7.25488C74.4141 6.5957 73.6247 6.24984 72.5098 6.21729H71.2036ZM86.9141 21.2441C85.14 21.2441 83.7565 20.7152 82.7637 19.6572C81.7708 18.5993 81.2744 17.0856 81.2744 15.1162V14.0664C81.2744 11.9831 81.7301 10.3758 82.6416 9.24463C83.5531 8.11344 84.8592 7.54785 86.5601 7.54785C88.2202 7.54785 89.4694 8.08089 90.3076 9.14697C91.1458 10.2049 91.5731 11.7756 91.5894 13.8589V15.5557H84.7168C84.7656 16.5322 84.9813 17.2484 85.3638 17.7041C85.7463 18.1517 86.3363 18.3755 87.1338 18.3755C88.2894 18.3755 89.2537 17.9808 90.0269 17.1914L91.3818 19.2788C90.9587 19.8647 90.3442 20.3408 89.5386 20.707C88.7329 21.0651 87.8581 21.2441 86.9141 21.2441ZM84.7412 13.1387H88.1958V12.8213C88.1795 12.0319 88.0493 11.4338 87.8052 11.0269C87.561 10.62 87.1379 10.4165 86.5356 10.4165C85.9334 10.4165 85.494 10.6322 85.2173 11.0635C84.9487 11.4948 84.79 12.1865 84.7412 13.1387ZM97.7051 16.1172L99.3774 7.79199H102.979L99.353 21H96.0571L92.4194 7.79199H96.0327L97.7051 16.1172ZM108.228 21H104.761V7.79199H108.228V21ZM104.602 4.37402C104.602 3.83691 104.773 3.39746 105.115 3.05566C105.457 2.71387 105.912 2.54297 106.482 2.54297C107.052 2.54297 107.507 2.71387 107.849 3.05566C108.191 3.39746 108.362 3.83691 108.362 4.37402C108.362 4.90299 108.191 5.34245 107.849 5.69238C107.515 6.04232 107.06 6.21729 106.482 6.21729C105.904 6.21729 105.444 6.04232 105.103 5.69238C104.769 5.34245 104.602 4.90299 104.602 4.37402ZM115.674 18.3755C116.675 18.3755 117.183 17.7244 117.2 16.4224H120.447C120.431 17.8628 119.987 19.0265 119.116 19.9136C118.245 20.8006 117.122 21.2441 115.747 21.2441C114.046 21.2441 112.748 20.7152 111.853 19.6572C110.958 18.5993 110.502 17.0409 110.486 14.9819V13.9321C110.486 11.8569 110.925 10.2741 111.804 9.18359C112.691 8.0931 113.997 7.54785 115.723 7.54785C117.179 7.54785 118.327 7.99951 119.165 8.90283C120.003 9.79801 120.431 11.0716 120.447 12.7236H117.2C117.192 11.9831 117.069 11.4134 116.833 11.0146C116.597 10.6159 116.207 10.4165 115.662 10.4165C115.059 10.4165 114.628 10.6322 114.368 11.0635C114.107 11.4867 113.969 12.3127 113.953 13.5415V14.8843C113.953 15.9585 114.006 16.7113 114.111 17.1426C114.217 17.5658 114.392 17.8791 114.636 18.0825C114.88 18.2778 115.226 18.3755 115.674 18.3755ZM127.734 21.2441C125.96 21.2441 124.577 20.7152 123.584 19.6572C122.591 18.5993 122.095 17.0856 122.095 15.1162V14.0664C122.095 11.9831 122.55 10.3758 123.462 9.24463C124.373 8.11344 125.68 7.54785 127.38 7.54785C129.041 7.54785 130.29 8.08089 131.128 9.14697C131.966 10.2049 132.393 11.7756 132.41 13.8589V15.5557H125.537C125.586 16.5322 125.802 17.2484 126.184 17.7041C126.567 18.1517 127.157 18.3755 127.954 18.3755C129.11 18.3755 130.074 17.9808 130.847 17.1914L132.202 19.2788C131.779 19.8647 131.165 20.3408 130.359 20.707C129.553 21.0651 128.678 21.2441 127.734 21.2441ZM125.562 13.1387H129.016V12.8213C129 12.0319 128.87 11.4338 128.625 11.0269C128.381 10.62 127.958 10.4165 127.356 10.4165C126.754 10.4165 126.314 10.6322 126.038 11.0635C125.769 11.4948 125.61 12.1865 125.562 13.1387Z" fill="white"/>
</symbol><symbol id="icon-tag" viewBox="0 0 35 35">
<path d="M11.0708 8.58472C10.9437 8.45756 10.7673 8.3844 10.5875 8.3844C10.4077 8.3844 10.2314 8.45756 10.1042 8.58472C9.97714 8.71189 9.90393 8.88828 9.90393 9.0681C9.90393 9.24791 9.97707 9.4243 10.1042 9.55147C10.2314 9.67871 10.4077 9.75179 10.5875 9.75179C10.7673 9.75179 10.9437 9.67864 11.0708 9.55147C11.1979 9.4243 11.2711 9.24791 11.2711 9.0681C11.2711 8.88828 11.198 8.71189 11.0708 8.58472Z" fill="var(--hover, #00B2FF)"/>
<path d="M34.8 2.85866L33.9548 2.01231L34.7998 1.16719C35.0667 0.900207 35.0667 0.46729 34.7998 0.200238C34.5328 -0.0667459 34.1 -0.0667459 33.833 0.200238L32.9885 1.04481L32.1556 0.210835C32.0275 0.0825735 31.8537 0.0103751 31.6724 0.0103067L20.1023 0.00387998C20.1016 0.00387998 20.101 0.00387998 20.1004 0.00387998C19.1868 0.00387998 18.3278 0.359676 17.6818 1.00584L11.9081 6.78034C11.6412 7.04732 11.6412 7.48024 11.9081 7.74729C12.1751 8.01428 12.6079 8.01428 12.8749 7.74729L18.6486 1.97279C19.0364 1.58486 19.5519 1.37134 20.1004 1.37134C20.1008 1.37134 20.1012 1.37134 20.1016 1.37134L31.3884 1.37763L32.0219 2.01183L29.4854 4.54862C28.4099 3.9043 26.9919 4.0448 26.066 4.97066C25.5371 5.49971 25.2459 6.20303 25.2459 6.95113C25.2459 7.69923 25.5371 8.40255 26.066 8.93159C26.612 9.47759 27.3291 9.75059 28.0463 9.75059C28.7634 9.75059 29.4805 9.47759 30.0264 8.93159C30.9508 8.00703 31.0922 6.59164 30.4514 5.51646L32.9881 2.97933L33.6327 3.62481L33.6265 14.8981C33.6261 15.4461 33.4126 15.9614 33.025 16.349L16.3438 33.0327C15.956 33.4205 15.4403 33.6341 14.892 33.6341C14.3436 33.6341 13.8279 33.4205 13.4401 33.0327L1.96861 21.5593C1.58074 21.1715 1.36719 20.6558 1.36719 20.1073C1.36719 19.5588 1.58074 19.0431 1.96861 18.6553L9.33734 11.2854C9.60429 11.0184 9.60429 10.5855 9.33734 10.3185C9.07033 10.0515 8.63762 10.0515 8.37054 10.3185L1.00181 17.6883C0.355811 18.3344 0 19.1935 0 20.1073C0 21.0211 0.355811 21.8802 1.00181 22.5263L12.4733 33.9996C13.1402 34.6665 14.016 35 14.892 35C15.7679 35 16.6437 34.6665 17.3106 33.9996L33.9918 17.3158C34.6373 16.6702 34.993 15.8118 34.9936 14.8987L35 3.34217C35.0001 3.16085 34.9282 2.98692 34.8 2.85866ZM29.0596 7.96457C28.7889 8.23532 28.429 8.38443 28.0463 8.38443C27.6634 8.38443 27.3036 8.23532 27.0329 7.96457C26.474 7.40572 26.474 6.49633 27.0329 5.93748C27.3123 5.65798 27.6792 5.51831 28.0463 5.51831C28.1845 5.51831 28.3227 5.5382 28.4562 5.57786L27.6672 6.36698C27.4003 6.63396 27.4003 7.06688 27.6672 7.33393C27.8007 7.46746 27.9757 7.53419 28.1506 7.53419C28.3255 7.53419 28.5005 7.46746 28.634 7.33393L29.4208 6.547C29.5629 7.03372 29.4427 7.5815 29.0596 7.96457Z" fill="var(--hover, #00B2FF)"/>
<path d="M29.2003 13.7645L21.2337 5.79669C20.1784 4.7412 18.4612 4.74134 17.406 5.79669L4.79906 18.4056C4.2878 18.9168 4.00623 19.5966 4.00623 20.3197C4.00623 21.0428 4.28773 21.7227 4.79899 22.2339L12.7656 30.2016C13.2768 30.7129 13.9565 30.9946 14.6794 30.9946C15.4024 30.9946 16.0822 30.713 16.5933 30.2017L29.2003 17.5928C29.7115 17.0815 29.993 16.4017 29.993 15.6786C29.993 14.9556 29.7115 14.2758 29.2003 13.7645ZM28.2335 16.6258L15.6266 29.2349C15.3736 29.4878 15.0372 29.6272 14.6795 29.6272C14.3218 29.6272 13.9854 29.4878 13.7325 29.2348L5.7658 21.267C5.5128 21.014 5.37348 20.6776 5.37348 20.3198C5.37341 19.9619 5.5128 19.6255 5.7658 19.3725L18.3728 6.76365C18.6339 6.50247 18.9769 6.37189 19.3199 6.37189C19.6628 6.37189 20.0059 6.50254 20.2669 6.76365L28.2335 14.7314C28.4865 14.9844 28.6258 15.3208 28.6258 15.6786C28.6258 16.0364 28.4865 16.3729 28.2335 16.6258Z" fill="var(--hover, #00B2FF)"/>
<path d="M22.2904 13.677C22.5574 13.41 22.5574 12.9771 22.2904 12.71C22.0234 12.443 21.5907 12.443 21.3236 12.71L20.93 13.1037C19.879 12.4544 18.5304 12.5415 17.6779 13.394C17.1808 13.8912 16.9265 14.5662 16.9618 15.2949C16.9959 15.9985 17.2989 16.6702 17.8148 17.1862C17.8149 17.1863 17.8149 17.1863 17.8149 17.1864C18.3648 17.7365 18.4261 18.5701 17.9517 19.0446C17.4771 19.5191 16.6435 19.4577 16.0935 18.9077C15.5435 18.3575 15.4821 17.5238 15.9566 17.0492C16.2235 16.7822 16.2235 16.3493 15.9566 16.0823C15.6896 15.8153 15.2569 15.8153 14.9898 16.0823C14.1373 16.9348 14.0503 18.2836 14.6995 19.3349L14.2324 19.8019C13.9655 20.0689 13.9655 20.5018 14.2324 20.7689C14.3663 20.9025 14.5412 20.9693 14.7161 20.9693C14.8911 20.9693 15.066 20.9025 15.1995 20.769L15.6668 20.3016C16.1261 20.5853 16.6419 20.729 17.1486 20.729C17.8013 20.7289 18.4387 20.4915 18.9186 20.0115C19.9259 19.004 19.8647 17.3033 18.7822 16.22C18.782 16.2198 18.7819 16.2196 18.7817 16.2194C18.5065 15.9441 18.3451 15.5923 18.3275 15.2287C18.3112 14.8901 18.4238 14.582 18.6448 14.361C19.1192 13.8864 19.9526 13.9478 20.5027 14.4977C20.5028 14.4978 20.5028 14.4979 20.5028 14.4979C20.5029 14.498 20.503 14.498 20.503 14.498C21.0529 15.0482 21.1142 15.8817 20.6397 16.3563C20.3727 16.6233 20.3727 17.0562 20.6397 17.3232C20.7732 17.4568 20.9481 17.5235 21.1231 17.5235C21.298 17.5235 21.4729 17.4568 21.6064 17.3232C22.4589 16.4706 22.546 15.1218 21.8968 14.0706L22.2904 13.677Z" fill="var(--hover, #00B2FF)"/>
<path d="M15.3717 25.0117L11.8607 21.5001C11.5938 21.2333 11.1611 21.2331 10.8939 21.5001C10.627 21.767 10.627 22.2 10.8939 22.467L14.405 25.9786C14.5385 26.1121 14.7134 26.1789 14.8884 26.1789C15.0633 26.1789 15.2382 26.1121 15.3717 25.9786C15.6387 25.7116 15.6387 25.2787 15.3717 25.0117Z" fill="var(--hover, #00B2FF)"/>
<path d="M9.98799 19.627C9.86091 19.4999 9.68516 19.4266 9.50476 19.4266C9.32498 19.4266 9.14929 19.4998 9.02146 19.627C8.89431 19.7541 8.82117 19.9305 8.82117 20.111C8.82117 20.2908 8.89424 20.4672 9.02146 20.5944C9.14861 20.7216 9.32498 20.7947 9.50476 20.7947C9.68523 20.7947 9.86091 20.7216 9.98799 20.5944C10.1158 20.4665 10.189 20.2908 10.189 20.111C10.189 19.9305 10.1158 19.7548 9.98799 19.627Z" fill="var(--hover, #00B2FF)"/>
</symbol><symbol id="icon-vk" viewBox="0 0 27 26">
<path d="M19.4047 15.1271C18.2958 14.1029 18.2166 14.1029 19.1671 12.9211C20.3551 11.4243 21.9392 9.53349 20.5135 9.53349H17.8998C17.4246 9.53349 17.3454 9.84862 17.187 10.2425C16.5534 11.7394 15.2861 13.709 14.8109 13.3938C14.3357 13.0787 14.5733 11.897 14.5733 10.0062C14.6525 9.76984 14.5733 9.53349 14.4149 9.37592C14.2565 9.21836 14.0189 9.06079 13.7813 9.06079C13.3853 8.98201 12.9893 8.90323 12.5932 8.90323C11.0884 8.90323 10.0588 9.53349 10.6132 9.61227C11.6428 9.76984 11.5636 11.9758 11.326 12.9211C10.93 14.5756 9.34593 11.6606 8.6331 10.1638C8.5539 9.76984 8.23709 9.53349 7.84108 9.53349H5.7818C5.46499 9.53349 5.22738 9.61227 5.22738 9.84862C5.22738 10.2425 7.20745 14.1029 9.02912 16.0724C10.8508 17.9632 12.6724 17.8057 13.9397 17.8057C14.0981 17.8057 14.2565 17.7269 14.3357 17.6481C14.4149 17.5693 14.4941 17.4118 14.4941 17.2542C14.4941 15.9937 14.9693 15.3634 15.8406 16.23C16.791 17.1754 17.0286 17.8057 18.2166 17.8057H20.3551C20.9095 17.8057 21.0679 17.6481 21.0679 17.4118C21.1471 16.8603 20.1967 15.8361 19.4047 15.1271ZM13.7813 0.000789162C21.1471 0.158354 27.0082 6.06705 26.929 13.2363C26.8497 20.4055 20.7511 26.0778 13.3853 25.9991C5.94021 25.9203 0 20.1691 0 12.9999C0.0792028 5.75192 6.25702 -0.0779935 13.7813 0.000789162Z" fill="var(--hover, #CDCDCD)"/>
</symbol><symbol id="icon-watch" viewBox="0 0 29 35">
<path d="M3.18833 11.6622L1.70191 10.1904C0.894381 9.39114 0.894381 8.09017 1.70191 7.29042C2.50945 6.49094 3.82351 6.49094 4.63104 7.29042L6.21806 8.86162C7.87358 7.72007 9.7608 6.92993 11.7381 6.55075V4.51172H10.3571C9.97576 4.51172 9.66667 4.2057 9.66667 3.82812V2.05078C9.66667 0.919914 10.5958 0 11.7381 0H17.2619C18.4042 0 19.3333 0.919914 19.3333 2.05078V3.82812C19.3333 4.2057 19.0242 4.51172 18.6429 4.51172H17.2619V6.55075C19.2389 6.92966 21.1264 7.72007 22.7819 8.86162L24.369 7.29042C25.1762 6.49094 26.4903 6.49094 27.2981 7.29042C28.1056 8.0899 28.1056 9.39087 27.2981 10.1904L25.8117 11.6622C27.872 14.203 29 17.3678 29 20.6445C29 28.5601 22.4952 35 14.5 35C6.50477 35 -1.90735e-06 28.5601 -1.90735e-06 20.6445C-1.90735e-06 17.3678 1.12796 14.203 3.18833 11.6622ZM3.65467 8.25706C3.38522 7.99057 2.94747 7.99084 2.67829 8.25706C2.40938 8.52356 2.40938 8.95721 2.67829 9.22371L4.10509 10.636C4.4266 10.3092 4.76374 9.99756 5.11438 9.70249L3.65467 8.25706ZM17.9524 2.05078C17.9524 1.67374 17.6427 1.36719 17.2619 1.36719H11.7381C11.3573 1.36719 11.0476 1.67374 11.0476 2.05078V3.14453H17.9524V2.05078ZM13.119 4.51172V6.35368C14.0342 6.26877 14.9655 6.26877 15.881 6.35368V4.51172H13.119ZM26.3217 8.25706C26.0525 7.99084 25.6145 7.99057 25.3453 8.25706L23.8856 9.70249C24.2363 9.99756 24.5734 10.3092 24.8949 10.636L26.3217 9.22371C26.5906 8.95721 26.5906 8.52356 26.3217 8.25706ZM14.5 33.6328C21.7338 33.6328 27.619 27.8062 27.619 20.6445C27.619 17.4853 26.4606 14.4415 24.3574 12.0732C23.778 11.4208 23.1315 10.8248 22.4359 10.3009C20.6927 8.98766 18.6294 8.12328 16.4689 7.80098C15.8224 7.70512 15.16 7.65625 14.5 7.65625C13.84 7.65625 13.1776 7.70512 12.5313 7.80098C10.3706 8.12328 8.30729 8.98766 6.56384 10.3009C5.86851 10.8248 5.22199 11.4208 4.64264 12.0732C2.53939 14.4415 1.38095 17.4853 1.38095 20.6445C1.38095 27.8062 7.26618 33.6328 14.5 33.6328Z" fill="var(--hover, #00B2FF)"/>
<path d="M14.5 22.6953C13.3577 22.6953 12.4286 21.7754 12.4286 20.6445C12.4286 19.7535 13.0057 18.9935 13.8095 18.7112V13.8086C13.8095 13.431 14.1186 13.125 14.5 13.125C14.8814 13.125 15.1905 13.431 15.1905 13.8086V18.7112C15.9942 18.9935 16.5714 19.7535 16.5714 20.6445C16.5714 21.7754 15.6422 22.6953 14.5 22.6953ZM14.5 19.9609C14.1191 19.9609 13.8095 20.2675 13.8095 20.6445C13.8095 21.0216 14.1191 21.3281 14.5 21.3281C14.8808 21.3281 15.1905 21.0216 15.1905 20.6445C15.1905 20.2675 14.8808 19.9609 14.5 19.9609Z" fill="var(--hover, #00B2FF)"/>
<path d="M7.14458 13.4326C7.15536 13.4201 7.16615 13.4075 7.17829 13.3958C7.19124 13.3827 7.20499 13.371 7.21875 13.3592C8.43571 12.1672 9.93912 11.2852 11.5706 10.8083C11.9366 10.7015 12.3205 10.9082 12.4283 11.2702C12.5362 11.6323 12.3275 12.0126 11.9617 12.1194C10.7529 12.4729 9.62517 13.0839 8.66389 13.8997L9.12969 14.3608C9.39914 14.6279 9.39914 15.0607 9.12969 15.3277C8.99484 15.4613 8.81817 15.528 8.64124 15.528C8.46457 15.528 8.28791 15.4613 8.15305 15.3277L7.68617 14.8655C6.43684 16.3037 5.69485 18.0741 5.55028 19.961H6.21432C6.5957 19.961 6.9048 20.2672 6.9048 20.6446C6.9048 21.0221 6.5957 21.3281 6.21432 21.3281H5.55028C5.69485 23.2152 6.43684 24.9854 7.68617 26.4236L8.15305 25.9614C8.42277 25.6946 8.85998 25.6946 9.12969 25.9614C9.39941 26.2284 9.39941 26.6612 9.12969 26.9283L8.66282 27.3905C10.1155 28.6274 11.9037 29.362 13.8096 29.5054V28.8477C13.8096 28.4701 14.1187 28.1641 14.5 28.1641C14.8814 28.1641 15.1905 28.4701 15.1905 28.8477V29.5051C17.0963 29.362 18.8846 28.6274 20.3373 27.3905L19.8704 26.9283C19.6007 26.6612 19.6007 26.2284 19.8704 25.9614C20.1401 25.6946 20.5773 25.6946 20.847 25.9614L21.3139 26.4236C22.5632 24.9854 23.3052 23.215 23.4498 21.3281H22.7857C22.4044 21.3281 22.0953 21.0221 22.0953 20.6446C22.0953 20.267 22.4044 19.961 22.7857 19.961H23.4498C23.3052 18.0741 22.5632 16.3037 21.3139 14.8655L20.847 15.3277C20.7122 15.4613 20.5355 15.528 20.3588 15.528C20.1819 15.528 20.0052 15.4613 19.8704 15.3277C19.6009 15.0607 19.6009 14.6279 19.8704 14.3608L20.3362 13.8997C19.3749 13.0836 18.2472 12.4729 17.0383 12.1194C16.6726 12.0126 16.4638 11.6323 16.5717 11.2702C16.6796 10.9082 17.0632 10.7017 17.4294 10.8083C19.0607 11.2849 20.5635 12.1667 21.7802 13.3581C21.7945 13.3702 21.8086 13.3824 21.8218 13.3955C21.8336 13.4073 21.8442 13.4196 21.855 13.4318C23.7913 15.3667 24.8572 17.9259 24.8572 20.6446C24.8572 23.3629 23.7913 25.9218 21.8555 27.8565C21.8447 27.869 21.8339 27.8816 21.8218 27.8933C21.8099 27.9053 21.7975 27.9158 21.7851 27.9264C19.8307 29.8432 17.246 30.8985 14.5 30.8985C11.7543 30.8985 9.16961 29.8434 7.21551 27.927C7.20284 27.916 7.19016 27.9053 7.17829 27.8933C7.16642 27.8818 7.1559 27.8693 7.14512 27.8573C5.20882 25.9224 4.14289 23.3632 4.14289 20.6446C4.14289 17.9262 5.20882 15.3673 7.14458 13.4326Z" fill="var(--hover, #00B2FF)"/>
</symbol></svg>