<svg width="27" height="27" fill="none" xmlns="http://www.w3.org/2000/svg"><path d="M13.654 11.235c1.041 0 1.851-.857 1.832-1.79.02-.933-.771-1.809-1.813-1.809-1.003 0-1.832.8-1.832 1.79s.81 1.81 1.813 1.81z" fill="var(--hover, #CDCDCD)"/><path d="M13.5 0C6.056 0 0 5.98 0 13.33c0 7.37 6.056 13.33 13.5 13.33 7.463 0 13.5-5.98 13.5-13.33C27.02 5.98 20.963 0 13.5 0zm.193 5.046c2.43 0 4.435 1.98 4.416 4.4 0 2.437-2.025 4.398-4.493 4.36-2.43-.038-4.378-2-4.378-4.38 0-2.418 1.986-4.38 4.455-4.38zm4.956 10.284c0 .038-.019.057-.019.095-.058.38-.25.685-.579.895a7.696 7.696 0 01-.675.38 8.769 8.769 0 01-1.832.667c-.077.02-.077.02-.019.076l1.06 1.048 1.35 1.333a1.263 1.263 0 01-.346 2.056c-.136.076-.29.096-.444.134h-.25c-.02 0-.04 0-.04-.02-.308-.038-.559-.19-.79-.4l-2.334-2.303c-.057-.058-.057-.058-.115 0l-2.353 2.323a1.43 1.43 0 01-.444.305c-.115.057-.25.076-.366.095h-.25c-.04 0-.059-.02-.097-.02-.521-.095-.868-.38-1.022-.875-.155-.495-.039-.933.327-1.295l.965-.952 1.427-1.41c.058-.057.058-.057-.02-.076-.019 0-.057-.019-.077-.019a8.391 8.391 0 01-2.41-1.01c-.444-.285-.656-.704-.598-1.218.096-.952 1.176-1.466 1.986-.952.155.095.29.171.463.248a5.55 5.55 0 002.816.57 5.451 5.451 0 001.446-.266c.463-.152.868-.362 1.292-.59.695-.4 1.601-.076 1.871.666.039.115.058.21.077.324v.19z" fill="var(--hover, #CDCDCD)"/></svg>