<svg width="27" height="26" fill="none" xmlns="http://www.w3.org/2000/svg"><path d="M19.405 15.127c-1.11-1.024-1.188-1.024-.238-2.206 1.188-1.497 2.772-3.388 1.346-3.388H17.9c-.475 0-.555.316-.713.71-.634 1.496-1.9 3.466-2.376 3.15-.475-.314-.238-1.496-.238-3.387a.61.61 0 00-.158-.63c-.158-.158-.396-.315-.634-.315-.396-.079-.792-.158-1.188-.158-1.505 0-2.534.63-1.98.71 1.03.157.95 2.363.713 3.308-.396 1.655-1.98-1.26-2.693-2.757-.08-.394-.396-.63-.792-.63h-2.06c-.316 0-.554.078-.554.315 0 .393 1.98 4.254 3.802 6.223 1.822 1.891 3.643 1.734 4.91 1.734a.607.607 0 00.397-.158.6.6 0 00.158-.394c0-1.26.475-1.89 1.347-1.024.95.945 1.188 1.576 2.376 1.576h2.138c.555 0 .713-.158.713-.394.08-.552-.871-1.576-1.663-2.285zM13.78.001c7.366.157 13.227 6.066 13.148 13.235-.08 7.17-6.178 12.842-13.544 12.763C5.94 25.92 0 20.17 0 13 .08 5.753 6.257-.077 13.781.002z" fill="var(--hover, #CDCDCD)"/></svg>