<svg width="27" height="27" viewBox="0 0 27 27" fill="none" xmlns="http://www.w3.org/2000/svg">
<path d="M13.6539 11.2351C14.6953 11.2351 15.5053 10.3782 15.4861 9.44507C15.5053 8.51196 14.7146 7.63599 13.6732 7.63599C12.6703 7.63599 11.8411 8.43579 11.8411 9.42602C11.8411 10.4163 12.6511 11.2351 13.6539 11.2351Z" fill="var(--hover, #CDCDCD)"/>
<path d="M13.5 0C6.0557 0 0 5.97949 0 13.3301C0 20.6997 6.0557 26.6601 13.5 26.6601C20.9635 26.6601 27 20.6807 27 13.3301C27.0192 5.97949 20.9635 0 13.5 0ZM13.6928 5.04639C16.1228 5.04639 18.1285 7.02685 18.1093 9.44531C18.1093 11.8828 16.0843 13.8442 13.6157 13.8061C11.1857 13.7681 9.23784 11.8066 9.23784 9.42627C9.23784 7.00781 11.2243 5.04639 13.6928 5.04639ZM18.6493 15.3296C18.6493 15.3677 18.63 15.3867 18.63 15.4248C18.5721 15.8057 18.3793 16.1103 18.0514 16.3198C17.8393 16.4531 17.6078 16.5864 17.3764 16.7007C16.7978 16.9863 16.1807 17.2148 15.5443 17.3672C15.4671 17.3862 15.4671 17.3862 15.525 17.4434C15.8721 17.7861 16.2385 18.1479 16.5857 18.4907C17.0293 18.9287 17.4921 19.3857 17.9357 19.8237C18.5721 20.4521 18.3985 21.4995 17.5885 21.8804C17.4535 21.9565 17.2993 21.9756 17.145 22.0137C17.0678 22.0137 16.9714 22.0137 16.8943 22.0137C16.875 22.0137 16.8557 22.0137 16.8557 21.9946C16.5471 21.9565 16.2964 21.8042 16.065 21.5947C15.2935 20.833 14.5028 20.0522 13.7314 19.2905C13.6735 19.2334 13.6735 19.2334 13.6157 19.2905C12.825 20.0713 12.0536 20.833 11.2628 21.6138C11.1278 21.7471 10.9928 21.8423 10.8193 21.9185C10.7036 21.9756 10.5686 21.9946 10.4528 22.0137C10.3757 22.0137 10.2986 22.0137 10.2021 22.0137C10.1636 22.0137 10.1443 21.9946 10.1057 21.9946C9.58498 21.8994 9.23784 21.6138 9.08356 21.1186C8.92927 20.6235 9.04498 20.1855 9.41141 19.8237C9.73927 19.5 10.0478 19.1953 10.3757 18.8716C10.8578 18.3955 11.34 17.9194 11.8028 17.4624C11.8607 17.4053 11.8607 17.4053 11.7836 17.3862C11.7643 17.3862 11.7257 17.3672 11.7064 17.3672C10.8386 17.1577 10.0478 16.8149 9.2957 16.3579C8.85213 16.0723 8.63998 15.6533 8.69784 15.1392C8.79427 14.187 9.87427 13.6728 10.6843 14.187C10.8386 14.2822 10.9736 14.3584 11.1471 14.4346C12.0343 14.8726 12.9793 15.063 13.9628 15.0059C14.445 14.9868 14.9271 14.8916 15.4093 14.7393C15.8721 14.5869 16.2771 14.3774 16.7014 14.1489C17.3957 13.749 18.3021 14.0728 18.5721 14.8154C18.6107 14.9297 18.63 15.0249 18.6493 15.1392C18.6493 15.1963 18.6493 15.2534 18.6493 15.3296Z" fill="var(--hover, #CDCDCD)"/>
</svg>
